<?xml version="1.0" encoding="UTF-8"?>
<svg version="1.1" xmlns="http://www.w3.org/2000/svg" width="500" height="500">
<path d="M0 0 C165 0 330 0 500 0 C500 165 500 330 500 500 C335 500 170 500 0 500 C0 335 0 170 0 0 Z " fill="#FEFEFE" transform="translate(0,0)"/>
<path d="M0 0 C2.475 0.495 2.475 0.495 5 1 C5.66 1.99 6.32 2.98 7 4 C7.680625 4.28875 8.36125 4.5775 9.0625 4.875 C9.701875 5.24625 10.34125 5.6175 11 6 C11.495 8.475 11.495 8.475 12 11 C42.69 11 73.38 11 105 11 C105 7.37 105 3.74 105 0 C108.88667715 1.55467086 110.82411106 2.37881404 113.8125 4.9375 C114.41707031 5.44152344 115.02164063 5.94554687 115.64453125 6.46484375 C117 8 117 8 117 11 C120.3 11 123.6 11 127 11 C127 7.37 127 3.74 127 0 C130.20159561 0.60982773 132.39306915 1.22991569 134.453125 3.84375 C134.92234375 4.5553125 135.3915625 5.266875 135.875 6 C138.07822676 9.24072507 139.37825618 10.49521962 143.25 11.25 C144.4875 11.4975 145.725 11.745 147 12 C147.99 13.98 147.99 13.98 149 16 C145.37 16 141.74 16 138 16 C138 35.14 138 54.28 138 74 C133.02809747 73.00561949 131.45336745 72.53884538 128.19989014 69.02532959 C125.70265344 64.81017087 126.27830451 60.01252098 126.4140625 55.2578125 C126.42255219 54.13430389 126.43104187 53.01079529 126.43978882 51.85324097 C126.47328914 48.27617201 126.54856922 44.70138388 126.625 41.125 C126.65510364 38.69534513 126.68247873 36.26565481 126.70703125 33.8359375 C126.77307064 27.88975051 126.87657554 21.94526152 127 16 C123.7 16 120.4 16 117 16 C117 35.14 117 54.28 117 74 C112.02953931 73.00590786 110.57722299 72.28717788 107 69 C104.74129892 65.61194839 104.70740587 64.22649259 104.5859375 60.23828125 C104.54726563 59.12001953 104.50859375 58.00175781 104.46875 56.84960938 C104.42234375 55.09874023 104.42234375 55.09874023 104.375 53.3125 C104.33632813 52.13365234 104.29765625 50.95480469 104.2578125 49.74023438 C104.16345609 46.82698023 104.07786839 43.91373393 104 41 C103.34 41 102.68 41 102 41 C101.8453125 41.8971875 101.8453125 41.8971875 101.6875 42.8125 C101 45 101 45 99.4375 46.4375 C97.75169649 47.95606328 97.75169649 47.95606328 97.75 50.5 C97.92002433 53.12717443 97.92002433 53.12717443 99 56 C95.01228005 55.43561272 92.88162911 53.46354838 89.9375 50.8125 C89.08027344 50.05582031 88.22304688 49.29914063 87.33984375 48.51953125 C84.85990331 45.84914463 83.46512435 43.31934729 82 40 C75.37069188 40.40402759 75.37069188 40.40402759 70 44 C68.52006659 48.62580278 68.43148556 53.43650116 70.3125 57.9375 C72.81555424 62.48007992 74.61240121 64.38833405 79 67 C81.85889402 69.67948974 84.33691805 72.54161751 86.75 75.625 C87.36359375 76.40101563 87.9771875 77.17703125 88.609375 77.9765625 C90 80 90 80 90 82 C90.99 82.33 91.98 82.66 93 83 C96.0200815 87.48436344 95.75070237 92.82168572 95 98 C92.71404457 101.33096362 91.43988266 102.6760264 87.5 103.5625 C83.19198858 102.59319743 80.86462819 100.23043242 78.375 96.6875 C78 94 78 94 79 92.37109375 C79.93048226 91.18948702 80.86686858 90.0125097 81.80859375 88.83984375 C83.71592471 85.89442446 83.46368591 83.37828305 83 80 C82.34 79.34 81.68 78.68 81 78 C80.70738281 77.21625 80.41476562 76.4325 80.11328125 75.625 C78.8699204 72.69328599 77.48641397 71.18023198 75.1875 69 C74.47078125 68.3090625 73.7540625 67.618125 73.015625 66.90625 C72.35046875 66.2771875 71.6853125 65.648125 71 65 C66.79008973 60.89277047 62.58207342 56.67630911 59 52 C59 51.34 59 50.68 59 50 C58.34 50 57.68 50 57 50 C53.98882912 44.98138186 53.44768743 41.70722989 54 36 C55.375 33.5 55.375 33.5 57 32 C57.66 32 58.32 32 59 32 C59 31.34 59 30.68 59 30 C65.0507558 27.10067951 70.73239281 26.56223523 77.36328125 26.37915039 C81.02825307 26.25160019 83.93453613 26.12628989 87 24 C88.26804566 21.9664052 88.26804566 21.9664052 89 20 C91.9719385 21.12451727 94.33440687 22.22293791 97 24 C99.05709596 24.24055468 99.05709596 24.24055468 101.1875 24.125 C103.0746875 24.063125 103.0746875 24.063125 105 24 C105 21.36 105 18.72 105 16 C74.31 16 43.62 16 12 16 C12 18.64 12 21.28 12 24 C12.94875 23.505 13.8975 23.01 14.875 22.5 C20.11238158 20.29924168 25.69171657 19.70545431 31.06640625 21.80859375 C36.72749826 25.11375656 45.21308739 30.71866623 47.76953125 36.84375 C48.09449782 39.88411518 48.21083404 42.8792914 48.25 45.9375 C48.27578125 47.14277344 48.3015625 48.34804687 48.328125 49.58984375 C47.97695385 53.23951533 47.24467323 55.12877963 45 58 C44.34 58 43.68 58 43 58 C42.67 59.32 42.34 60.64 42 62 C36.22843962 63.98911307 31.13757259 64.2451155 25.0625 64.125 C23.75055664 64.11146484 23.75055664 64.11146484 22.41210938 64.09765625 C20.27461936 64.0742957 18.13727214 64.03843247 16 64 C15.67 67.63 15.34 71.26 15 75 C12.525 75.495 12.525 75.495 10 76 C8.828125 74.53515625 7.65625 73.0703125 6.484375 71.60546875 C5.01957917 69.88823191 5.01957917 69.88823191 2.875 68.625 C1 67 1 67 0.390625 64.51953125 C0.34421875 63.62621094 0.2978125 62.73289062 0.25 61.8125 C0.19328125 60.91144531 0.1365625 60.01039063 0.078125 59.08203125 C0.05234375 58.39496094 0.0265625 57.70789063 0 57 C-0.99 57.20625 -1.98 57.4125 -3 57.625 C-8.28425507 58.32673206 -12.74178969 57.58911096 -17.109375 54.515625 C-21.84331339 50.49355704 -27.00117583 45.99647251 -29 40 C-29.32512097 33.389207 -29.13779332 28.47533964 -24.625 23.25 C-21.20175235 20.31578772 -19.3293184 19.21269094 -14.875 18.5 C-9.37161927 19.21011364 -5.53739586 21.93246477 -1 25 C-0.67 22.03 -0.34 19.06 0 16 C-1.57467041 16.00785522 -1.57467041 16.00785522 -3.18115234 16.01586914 C-7.06867625 16.03394239 -10.95619644 16.04544054 -14.84375 16.05493164 C-16.52767562 16.05996653 -18.21159686 16.06679481 -19.89550781 16.07543945 C-22.31316203 16.08754196 -24.73075856 16.09323668 -27.1484375 16.09765625 C-27.9036972 16.10281754 -28.65895691 16.10797882 -29.43710327 16.11329651 C-34.77225659 16.11387171 -34.77225659 16.11387171 -37 15 C-37.33 17.31 -37.66 19.62 -38 22 C-38.66 22 -39.32 22 -40 22 C-40.33 22.99 -40.66 23.98 -41 25 C-46.875 24.125 -46.875 24.125 -48 23 C-48.203125 20.8203125 -48.203125 20.8203125 -48.25 18.125 C-48.27578125 17.24070313 -48.3015625 16.35640625 -48.328125 15.4453125 C-47.93037847 12.48115387 -47.33194115 11.80662476 -45 10 C-42.93086243 9.67720032 -42.93086243 9.67720032 -40.52856445 9.7512207 C-39.62785721 9.77146805 -38.72714996 9.79171539 -37.79914856 9.81257629 C-36.83031235 9.84993393 -35.86147614 9.88729156 -34.86328125 9.92578125 C-33.86870407 9.95222214 -32.87412689 9.97866302 -31.84941101 10.00590515 C-28.66983509 10.09374167 -25.49139181 10.2028665 -22.3125 10.3125 C-20.15824383 10.37575104 -18.00394653 10.43761735 -15.84960938 10.49804688 C-10.56579464 10.64929482 -5.28289788 10.81963918 0 11 C0 7.37 0 3.74 0 0 Z " fill="#0B0B0B" transform="translate(277,200)"/>
<path d="M0 0 C4.1187423 0.53849281 6.41952244 1.76435333 9.625 4.375 C10.38039063 4.98085937 11.13578125 5.58671875 11.9140625 6.2109375 C14 8 14 8 15.11987305 9.57983398 C18.13726788 11.85904263 21.52802726 11.4815895 25.16796875 11.51171875 C25.96278152 11.52966995 26.7575943 11.54762115 27.57649231 11.56611633 C30.11344101 11.6202697 32.65020107 11.65413028 35.1875 11.6875 C36.90822941 11.72066874 38.6289339 11.75515799 40.34960938 11.79101562 C44.56627022 11.87599873 48.78287464 11.94278542 53 12 C53 8.37 53 4.74 53 1 C56.88667715 2.55467086 58.82411106 3.37881404 61.8125 5.9375 C62.41707031 6.44152344 63.02164063 6.94554687 63.64453125 7.46484375 C65 9 65 9 65 12 C65.62648437 12.02578125 66.25296875 12.0515625 66.8984375 12.078125 C68.12433594 12.16320312 68.12433594 12.16320312 69.375 12.25 C70.59316406 12.31960937 70.59316406 12.31960937 71.8359375 12.390625 C72.90714844 12.69226563 72.90714844 12.69226563 74 13 C74.99 14.98 74.99 14.98 76 17 C72.37 17 68.74 17 65 17 C65 36.14 65 55.28 65 75 C59.28290548 73.8565811 58.0878996 72.80917917 54 69 C52.64560332 66.29120665 52.93498549 63.99066732 53 61 C51.88625 61.66 50.7725 62.32 49.625 63 C42.26309092 66.366799 33.90201106 65.30687422 26 65 C26 64.34 26 63.68 26 63 C23.36 62.67 20.72 62.34 18 62 C18 61.34 18 60.68 18 60 C16.02 59.505 16.02 59.505 14 59 C14 58.34 14 57.68 14 57 C13.01 57 12.02 57 11 57 C11 56.34 11 55.68 11 55 C9.68 55 8.36 55 7 55 C6.773125 54.278125 6.54625 53.55625 6.3125 52.8125 C4.75528356 49.47560763 2.61945291 47.55051994 0 45 C0 44.34 0 43.68 0 43 C-0.59296875 42.7525 -1.1859375 42.505 -1.796875 42.25 C-4.3343262 40.81031137 -5.54044102 39.34848507 -7.25 37 C-8.03117187 35.948125 -8.03117187 35.948125 -8.828125 34.875 C-10 33 -10 33 -10 31 C-8.824375 31.103125 -7.64875 31.20625 -6.4375 31.3125 C-1.43159842 31.32137571 1.40641028 29.31715974 5 26 C7.99338305 22.80705808 8.07401039 21.62994807 9 17 C-0.57 17 -10.14 17 -20 17 C-20 36.14 -20 55.28 -20 75 C-24.77461757 74.04507649 -27.08981092 73.4986511 -30.58642578 70.32714844 C-33.84354072 64.96500343 -32.6818584 57.69641715 -32.4375 51.625 C-32.40235642 50.11074886 -32.37042271 48.59641962 -32.34179688 47.08203125 C-32.27092453 43.38451963 -32.13404359 39.6979009 -32 36 C-36.95 35.67 -41.9 35.34 -47 35 C-46.49019039 39.03378366 -46.49019039 39.03378366 -43.9375 40.25 C-43.298125 40.4975 -42.65875 40.745 -42 41 C-41.63923075 46.07081218 -41.4380118 49.87602359 -43.75 54.5 C-47.16129032 58.29032258 -47.16129032 58.29032258 -50 59 C-55.91053501 58.71400637 -61.08256845 57.87894301 -65.48046875 53.5390625 C-69 49.49702381 -69 49.49702381 -69 47 C-69.66 47 -70.32 47 -71 47 C-71.6249225 36.27216367 -71.6249225 36.27216367 -69.25 31.4375 C-64.36037441 26.14040562 -64.36037441 26.14040562 -59.70019531 25.65942383 C-58.42241211 25.67513428 -57.14462891 25.69084473 -55.828125 25.70703125 C-54.8044986 25.71339851 -54.8044986 25.71339851 -53.76019287 25.71989441 C-51.58971996 25.73663028 -49.42019021 25.77427041 -47.25 25.8125 C-45.77475303 25.82755354 -44.29949145 25.84124078 -42.82421875 25.85351562 C-39.21584156 25.88651623 -35.6080129 25.93826233 -32 26 C-32 23.03 -32 20.06 -32 17 C-33.28688721 16.98018066 -34.57377441 16.96036133 -35.8996582 16.93994141 C-40.66890207 16.86393595 -45.43783881 16.77521076 -50.20678711 16.68261719 C-52.27182965 16.64430652 -54.3369394 16.60945734 -56.40209961 16.578125 C-59.36857138 16.53251986 -62.3345796 16.47451799 -65.30078125 16.4140625 C-66.2258699 16.40251129 -67.15095856 16.39096008 -68.1040802 16.37905884 C-68.96474594 16.35918915 -69.82541168 16.33931946 -70.7121582 16.31884766 C-71.46938675 16.30552399 -72.2266153 16.29220032 -73.00679016 16.2784729 C-75 16 -75 16 -78 14 C-78 13.34 -78 12.68 -78 12 C-62.82 12 -47.64 12 -32 12 C-32 8.37 -32 4.74 -32 1 C-28.16236492 2.53505403 -25.89579098 3.59863284 -22.75 6 C-22.06421875 6.515625 -21.3784375 7.03125 -20.671875 7.5625 C-19 9 -19 9 -18 11 C-4.635 11.495 -4.635 11.495 9 12 C6.55467231 6.62946122 6.55467231 6.62946122 2.8125 3.1875 C1.884375 2.465625 0.95625 1.74375 0 1 C0 0.67 0 0.34 0 0 Z " fill="#060606" transform="translate(146,199)"/>
<path d="M0 0 C3.88667715 1.55467086 5.82411106 2.37881404 8.8125 4.9375 C9.41707031 5.44152344 10.02164063 5.94554687 10.64453125 6.46484375 C12 8 12 8 12 11 C15.3 11 18.6 11 22 11 C22 7.37 22 3.74 22 0 C25.20159561 0.60982773 27.39306915 1.22991569 29.453125 3.84375 C29.92234375 4.5553125 30.3915625 5.266875 30.875 6 C33.07822676 9.24072507 34.37825618 10.49521962 38.25 11.25 C39.4875 11.4975 40.725 11.745 42 12 C42.99 13.98 42.99 13.98 44 16 C40.37 16 36.74 16 33 16 C33 35.14 33 54.28 33 74 C28.02809747 73.00561949 26.45336745 72.53884538 23.19989014 69.02532959 C20.70265344 64.81017087 21.27830451 60.01252098 21.4140625 55.2578125 C21.42255219 54.13430389 21.43104187 53.01079529 21.43978882 51.85324097 C21.47328914 48.27617201 21.54856922 44.70138388 21.625 41.125 C21.65510364 38.69534513 21.68247873 36.26565481 21.70703125 33.8359375 C21.77307064 27.88975051 21.87657554 21.94526152 22 16 C18.7 16 15.4 16 12 16 C12 35.14 12 54.28 12 74 C7.02953931 73.00590786 5.57722299 72.28717788 2 69 C-0.25870108 65.61194839 -0.29259413 64.22649259 -0.4140625 60.23828125 C-0.47207031 58.56088867 -0.47207031 58.56088867 -0.53125 56.84960938 C-0.5621875 55.68236328 -0.593125 54.51511719 -0.625 53.3125 C-0.68300781 51.54422852 -0.68300781 51.54422852 -0.7421875 49.74023438 C-0.83654391 46.82698023 -0.92213161 43.91373393 -1 41 C-1.66 41 -2.32 41 -3 41 C-3.103125 41.598125 -3.20625 42.19625 -3.3125 42.8125 C-4 45 -4 45 -5.5625 46.4375 C-7.24830351 47.95606328 -7.24830351 47.95606328 -7.25 50.5 C-7.07997567 53.12717443 -7.07997567 53.12717443 -6 56 C-9.98771995 55.43561272 -12.11837089 53.46354838 -15.0625 50.8125 C-15.91972656 50.05582031 -16.77695312 49.29914063 -17.66015625 48.51953125 C-20.14009669 45.84914463 -21.53487565 43.31934729 -23 40 C-29.62930812 40.40402759 -29.62930812 40.40402759 -35 44 C-36.47993341 48.62580278 -36.56851444 53.43650116 -34.6875 57.9375 C-32.18444576 62.48007992 -30.38759879 64.38833405 -26 67 C-23.14110598 69.67948974 -20.66308195 72.54161751 -18.25 75.625 C-17.63640625 76.40101563 -17.0228125 77.17703125 -16.390625 77.9765625 C-15 80 -15 80 -15 82 C-14.01 82.33 -13.02 82.66 -12 83 C-8.9799185 87.48436344 -9.24929763 92.82168572 -10 98 C-12.28595543 101.33096362 -13.56011734 102.6760264 -17.5 103.5625 C-21.80801142 102.59319743 -24.13537181 100.23043242 -26.625 96.6875 C-27 94 -27 94 -26 92.37109375 C-25.06951774 91.18948702 -24.13313142 90.0125097 -23.19140625 88.83984375 C-21.28407529 85.89442446 -21.53631409 83.37828305 -22 80 C-22.66 79.34 -23.32 78.68 -24 78 C-24.29261719 77.21625 -24.58523438 76.4325 -24.88671875 75.625 C-26.1300796 72.69328599 -27.51358603 71.18023198 -29.8125 69 C-30.52921875 68.3090625 -31.2459375 67.618125 -31.984375 66.90625 C-32.64953125 66.2771875 -33.3146875 65.648125 -34 65 C-38.20991027 60.89277047 -42.41792658 56.67630911 -46 52 C-46 51.34 -46 50.68 -46 50 C-46.66 50 -47.32 50 -48 50 C-51.01117088 44.98138186 -51.55231257 41.70722989 -51 36 C-49.625 33.5 -49.625 33.5 -48 32 C-47.34 32 -46.68 32 -46 32 C-46 31.34 -46 30.68 -46 30 C-39.9492442 27.10067951 -34.26760719 26.56223523 -27.63671875 26.37915039 C-23.97174693 26.25160019 -21.06546387 26.12628989 -18 24 C-16.73195434 21.9664052 -16.73195434 21.9664052 -16 20 C-13.0280615 21.12451727 -10.66559313 22.22293791 -8 24 C-5.94290404 24.24055468 -5.94290404 24.24055468 -3.8125 24.125 C-2.554375 24.08375 -1.29625 24.0425 0 24 C0 21.36 0 18.72 0 16 C-12.54 15.67 -25.08 15.34 -38 15 C-38 14.67 -38 14.34 -38 14 C-40.64 13.67 -43.28 13.34 -46 13 C-46 12.67 -46 12.34 -46 12 C-23.23 11.505 -23.23 11.505 0 11 C0 7.37 0 3.74 0 0 Z " fill="#080808" transform="translate(382,200)"/>
<path d="M0 0 C4.32848449 1.7313938 6.70437251 2.88251454 10 6 C10.66 7.65 11.32 9.3 12 11 C25.86 11.495 25.86 11.495 40 12 C40 12.33 40 12.66 40 13 C36.7 13 33.4 13 30 13 C30 13.66 30 14.32 30 15 C23.81546408 15.91622754 18.38333296 16 12 16 C12 35.14 12 54.28 12 74 C7.22538243 73.04507649 4.91018908 72.4986511 1.41357422 69.32714844 C-1.84354072 63.96500343 -0.6818584 56.69641715 -0.4375 50.625 C-0.40235642 49.11074886 -0.37042271 47.59641962 -0.34179688 46.08203125 C-0.27092453 42.38451963 -0.13404359 38.6979009 0 35 C-4.95 34.67 -9.9 34.34 -15 34 C-14.49019039 38.03378366 -14.49019039 38.03378366 -11.9375 39.25 C-11.298125 39.4975 -10.65875 39.745 -10 40 C-9.63923075 45.07081218 -9.4380118 48.87602359 -11.75 53.5 C-15.16129032 57.29032258 -15.16129032 57.29032258 -18 58 C-23.91053501 57.71400637 -29.08256845 56.87894301 -33.48046875 52.5390625 C-37 48.49702381 -37 48.49702381 -37 46 C-37.66 46 -38.32 46 -39 46 C-39.6249225 35.27216367 -39.6249225 35.27216367 -37.25 30.4375 C-32.36037441 25.14040562 -32.36037441 25.14040562 -27.70019531 24.65942383 C-26.42241211 24.67513428 -25.14462891 24.69084473 -23.828125 24.70703125 C-22.8044986 24.71339851 -22.8044986 24.71339851 -21.76019287 24.71989441 C-19.58971996 24.73663028 -17.42019021 24.77427041 -15.25 24.8125 C-13.77475303 24.82755354 -12.29949145 24.84124078 -10.82421875 24.85351562 C-7.21584156 24.88651623 -3.6080129 24.93826233 0 25 C0 22.03 0 19.06 0 16 C-1.28688721 15.98018066 -2.57377441 15.96036133 -3.8996582 15.93994141 C-8.66890207 15.86393595 -13.43783881 15.77521076 -18.20678711 15.68261719 C-20.27182965 15.64430652 -22.3369394 15.60945734 -24.40209961 15.578125 C-27.36857138 15.53251986 -30.3345796 15.47451799 -33.30078125 15.4140625 C-34.2258699 15.40251129 -35.15095856 15.39096008 -36.1040802 15.37905884 C-36.96474594 15.35918915 -37.82541168 15.33931946 -38.7121582 15.31884766 C-39.46938675 15.30552399 -40.2266153 15.29220032 -41.00679016 15.2784729 C-43 15 -43 15 -46 13 C-46 12.34 -46 11.68 -46 11 C-30.82 11 -15.64 11 0 11 C0 7.37 0 3.74 0 0 Z " fill="#080808" transform="translate(114,200)"/>
<path d="M0 0 C4.1187423 0.53849281 6.41952244 1.76435333 9.625 4.375 C10.38039062 4.98085937 11.13578125 5.58671875 11.9140625 6.2109375 C14 8 14 8 15.11987305 9.57983398 C18.13726788 11.85904263 21.52802726 11.4815895 25.16796875 11.51171875 C25.96278152 11.52966995 26.7575943 11.54762115 27.57649231 11.56611633 C30.11344101 11.6202697 32.65020107 11.65413028 35.1875 11.6875 C36.90822941 11.72066874 38.6289339 11.75515799 40.34960938 11.79101562 C44.56643412 11.87848473 48.78239613 11.93850653 53 12 C53 17.28 53 22.56 53 28 C51.515 27.505 51.515 27.505 50 27 C50 26.34 50 25.68 50 25 C41.68215415 22.08036351 41.68215415 22.08036351 33 22 C29.79346424 23.70611088 29.79346424 23.70611088 28 27 C27.2017614 34.05110761 29.7182552 39.55778231 34 45 C34.66 45.66 35.32 46.32 36 47 C36 47.99 36 48.98 36 50 C29.05121472 54.36002214 23.1111899 54.67685716 15 54 C14.01 53.67 13.02 53.34 12 53 C14.27677793 55.56229028 16.41287292 56.80703414 19.5625 58.125 C20.34753906 58.45757812 21.13257813 58.79015625 21.94140625 59.1328125 C22.96041016 59.56207031 22.96041016 59.56207031 24 60 C24.99 60.495 24.99 60.495 26 61 C32.7343041 61.35225591 39.342642 61.02420892 46 60 C46 59.34 46 58.68 46 58 C48.31 57.01 50.62 56.02 53 55 C53 56.98 53 58.96 53 61 C44.29305364 66.15967192 35.79727205 65.38047658 26 65 C26 64.34 26 63.68 26 63 C23.36 62.67 20.72 62.34 18 62 C18 61.34 18 60.68 18 60 C16.68 59.67 15.36 59.34 14 59 C14 58.34 14 57.68 14 57 C13.01 57 12.02 57 11 57 C11 56.34 11 55.68 11 55 C9.68 55 8.36 55 7 55 C6.773125 54.278125 6.54625 53.55625 6.3125 52.8125 C4.75528356 49.47560763 2.61945291 47.55051994 0 45 C0 44.34 0 43.68 0 43 C-0.59296875 42.7525 -1.1859375 42.505 -1.796875 42.25 C-4.3343262 40.81031137 -5.54044102 39.34848507 -7.25 37 C-8.03117188 35.948125 -8.03117188 35.948125 -8.828125 34.875 C-10 33 -10 33 -10 31 C-8.824375 31.103125 -7.64875 31.20625 -6.4375 31.3125 C-1.43159842 31.32137571 1.40641028 29.31715974 5 26 C7.99338305 22.80705808 8.07401039 21.62994807 9 17 C2.73 17 -3.54 17 -10 17 C-10 16.67 -10 16.34 -10 16 C-7.36 16 -4.72 16 -2 16 C-2 15.34 -2 14.68 -2 14 C-7.94 13.67 -13.88 13.34 -20 13 C-20.66 11.02 -21.32 9.04 -22 7 C-21.20480957 7.97114746 -21.20480957 7.97114746 -20.39355469 8.96191406 C-17.34020327 11.56180979 -15.67320915 11.53446775 -11.703125 11.609375 C-10.49785156 11.64160156 -9.29257813 11.67382812 -8.05078125 11.70703125 C-6.79652344 11.72121094 -5.54226562 11.73539063 -4.25 11.75 C-2.98027344 11.77964844 -1.71054688 11.80929688 -0.40234375 11.83984375 C2.73183485 11.91053951 5.86526956 11.96324012 9 12 C7.3401342 8.39614723 6.03533346 5.56682643 2.8125 3.1875 C1.884375 2.465625 0.95625 1.74375 0 1 C0 0.67 0 0.34 0 0 Z " fill="#090909" transform="translate(146,199)"/>
<path d="M0 0 C30.69 0 61.38 0 93 0 C93 2.64 93 5.28 93 8 C86.25158562 9.56659619 86.25158562 9.56659619 82.6875 7.953125 C80.72543379 6.70581148 78.84299357 5.41655623 77 4 C76.62875 5.175625 76.62875 5.175625 76.25 6.375 C74.75349575 9.51765892 74.21423859 9.84162181 71 11 C68.39464862 11.2481287 65.85951724 11.41347834 63.25 11.5 C57.59518018 11.7601166 52.41561845 12.30761924 47 14 C47 14.66 47 15.32 47 16 C46.01 16.804375 46.01 16.804375 45 17.625 C42.61374656 20.45867596 42.54905444 22.31519498 42.7265625 25.9609375 C43.1068232 28.7965959 43.94027093 31.35067733 45 34 C44.34 33.67 43.68 33.34 43 33 C43 32.01 43 31.02 43 30 C42.01 30 41.02 30 40 30 C40.00902344 30.6290625 40.01804687 31.258125 40.02734375 31.90625 C39.80655473 38.28033313 38.35409989 41.70022405 34.08203125 46.40625 C29.09005305 50.22750161 23.35300196 50.40084978 17.3125 50.6875 C16.55388672 50.73455078 15.79527344 50.78160156 15.01367188 50.83007812 C11.6940192 51.00880612 9.1817792 51.06059307 6 50 C6.02320313 50.84304688 6.04640625 51.68609375 6.0703125 52.5546875 C6.09738281 54.19824219 6.09738281 54.19824219 6.125 55.875 C6.14820313 56.96554687 6.17140625 58.05609375 6.1953125 59.1796875 C6 62 6 62 4 64 C-0.71954482 63.73285595 -4.33368881 63.05525932 -8 60 C-9.24701063 57.71381385 -10.09049097 55.45567438 -11 53 C-11.33 52.67 -11.66 52.34 -12 52 C-12.04092937 49.66702567 -12.04241723 47.33294775 -12 45 C-12.62648438 45.01160156 -13.25296875 45.02320313 -13.8984375 45.03515625 C-14.71570313 45.04417969 -15.53296875 45.05320312 -16.375 45.0625 C-17.59316406 45.07990234 -17.59316406 45.07990234 -18.8359375 45.09765625 C-21 45 -21 45 -23 44 C-23 43.01 -23 42.02 -23 41 C-22.113125 41.020625 -21.22625 41.04125 -20.3125 41.0625 C-17.37798345 41.00713176 -14.85960817 40.57192163 -12 40 C-10.38910897 41.61089103 -10.84203899 43.52791576 -10.75 45.75 C-10.40322033 49.67084751 -10.19090069 50.76388599 -7.625 53.9375 C-6.75875 54.618125 -5.8925 55.29875 -5 56 C-4.484375 56.598125 -3.96875 57.19625 -3.4375 57.8125 C-1.79678454 59.42458763 -1.79678454 59.42458763 2 59 C2.33 55.37 2.66 51.74 3 48 C8.55890507 46.88821899 13.56934739 47.01653125 19.2109375 47.16015625 C23.15829179 46.99330932 26.31258746 46.41428608 30 45 C30.33 44.01 30.66 43.02 31 42 C31.66 42 32.32 42 33 42 C34.96157384 37.89003576 35.2695411 34.53353543 35.25 30 C35.25515625 28.80375 35.2603125 27.6075 35.265625 26.375 C34.78253212 20.23687875 32.82913819 17.41296731 28.25 13.375 C26.98929687 12.24191406 26.98929687 12.24191406 25.703125 11.0859375 C19.49137718 6.29247892 14.63811638 5.26625969 7 6 C4.56073944 6.5069156 2.36005423 7.17911157 0 8 C0 5.36 0 2.72 0 0 Z " fill="#F9F9F9" transform="translate(289,216)"/>
<path d="M0 0 C0.66 0.33 1.32 0.66 2 1 C1.67 2.65 1.34 4.3 1 6 C-1.64 6.33 -4.28 6.66 -7 7 C-7 25.15 -7 43.3 -7 62 C-9.64 62 -12.28 62 -15 62 C-15 61.34 -15 60.68 -15 60 C-16.65 60 -18.3 60 -20 60 C-20.33 59.34 -20.66 58.68 -21 58 C-21.66 58 -22.32 58 -23 58 C-23 57.34 -23 56.68 -23 56 C-23.66 56 -24.32 56 -25 56 C-25.12375 57.27875 -25.2475 58.5575 -25.375 59.875 C-25.75 63.75 -25.75 63.75 -28 66 C-32.39867782 66.61092748 -35.20148423 65.12010182 -39 63 C-39 62.01 -39 61.02 -39 60 C-39.639375 59.79375 -40.27875 59.5875 -40.9375 59.375 C-43 58 -43 58 -43.75 54.875 C-43.8325 53.92625 -43.915 52.9775 -44 52 C-43.55269531 52.40992188 -43.10539062 52.81984375 -42.64453125 53.2421875 C-42.03996094 53.78101563 -41.43539063 54.31984375 -40.8125 54.875 C-40.22082031 55.40867187 -39.62914062 55.94234375 -39.01953125 56.4921875 C-36.67082069 58.38095341 -36.67082069 58.38095341 -32 60 C-32 40.86 -32 21.72 -32 2 C-28.7 2 -25.4 2 -22 2 C-22.00636475 3.51352051 -22.01272949 5.02704102 -22.01928711 6.58642578 C-22.03373607 12.21134024 -22.00236717 17.83523454 -21.95727539 23.45996094 C-21.94414995 25.8925428 -21.9433882 28.3252245 -21.95532227 30.7578125 C-21.9703388 34.25881115 -21.94064291 37.75704063 -21.90234375 41.2578125 C-21.91659897 42.34240753 -21.93085419 43.42700256 -21.94554138 44.54446411 C-21.91140319 50.14710518 -21.91140319 50.14710518 -19.48709106 55.02532959 C-16.7456214 57.45671211 -14.48933841 58.8368872 -11 60 C-11 40.86 -11 21.72 -11 2 C-7.37 2 -3.74 2 0 2 C0 1.34 0 0.68 0 0 Z " fill="#FBFBFC" transform="translate(426,214)"/>
<path d="M0 0 C3.20159561 0.60982773 5.39306915 1.22991569 7.453125 3.84375 C7.92234375 4.5553125 8.3915625 5.266875 8.875 6 C11.07822676 9.24072507 12.37825618 10.49521962 16.25 11.25 C17.4875 11.4975 18.725 11.745 20 12 C20.66 13.32 21.32 14.64 22 16 C18.37 16 14.74 16 11 16 C11 35.14 11 54.28 11 74 C6.02809747 73.00561949 4.45336745 72.53884538 1.19989014 69.02532959 C-1.29734656 64.81017087 -0.72169549 60.01252098 -0.5859375 55.2578125 C-0.57744781 54.13430389 -0.56895813 53.01079529 -0.56021118 51.85324097 C-0.52671086 48.27617201 -0.45143078 44.70138388 -0.375 41.125 C-0.34489636 38.69534513 -0.31752127 36.26565481 -0.29296875 33.8359375 C-0.22693047 27.88985105 -0.12661342 21.94508848 0 16 C-2.64 16 -5.28 16 -8 16 C-8 15.34 -8 14.68 -8 14 C-9.32 13.34 -10.64 12.68 -12 12 C-9.47524538 10.73762269 -7.68799534 10.90143596 -4.875 10.9375 C-3.26625 10.958125 -1.6575 10.97875 0 11 C0 7.37 0 3.74 0 0 Z " fill="#060606" transform="translate(404,200)"/>
<path d="M0 0 C9.57 0 19.14 0 29 0 C29 5.04668892 28.74563612 6.0403319 25.4765625 9.57421875 C20.8049096 14.08520634 17.40363362 15.44565861 11.05078125 15.3359375 C9 15 9 15 6 13 C6.33 13.99 6.66 14.98 7 16 C7.06404788 17.48386007 7.06950389 18.97066748 7.03759766 20.45556641 C7.02072906 21.35304596 7.00386047 22.25052551 6.98648071 23.17520142 C6.9625827 24.14090057 6.93868469 25.10659973 6.9140625 26.1015625 C6.89282318 27.09376801 6.87158386 28.08597351 6.84970093 29.10824585 C6.80344918 31.20471001 6.75452174 33.3011166 6.703125 35.39746094 C6.62514479 38.61901841 6.55807952 41.84067512 6.4921875 45.0625 C6.44596639 47.09636913 6.39911312 49.13022402 6.3515625 51.1640625 C6.33171295 52.13381012 6.3118634 53.10355774 6.29141235 54.10269165 C6.26823944 54.99386688 6.24506653 55.88504211 6.22119141 56.80322266 C6.20263092 57.5913736 6.18407043 58.37952454 6.16494751 59.19155884 C6 61 6 61 5 62 C2.32941149 62.14115161 -0.32432238 62.04247107 -3 62 C-3 61.34 -3 60.68 -3 60 C-3.66 60 -4.32 60 -5 60 C-5 59.34 -5 58.68 -5 58 C-5.99 57.67 -6.98 57.34 -8 57 C-9.6875 54.9375 -9.6875 54.9375 -11 53 C-10.67 52.34 -10.34 51.68 -10 51 C-8.5 52.375 -8.5 52.375 -7 54 C-7 54.66 -7 55.32 -7 56 C-4.69 56.66 -2.38 57.32 0 58 C0 38.86 0 19.72 0 0 Z " fill="#F0F0F0" transform="translate(126,216)"/>
<path d="M0 0 C9.57 0 19.14 0 29 0 C29 3.63 29 7.26 29 11 C28.01 10.67 27.02 10.34 26 10 C26 9.34 26 8.68 26 8 C17.68215415 5.08036351 17.68215415 5.08036351 9 5 C5.79346424 6.70611088 5.79346424 6.70611088 4 10 C3.2017614 17.05110761 5.7182552 22.55778231 10 28 C10.66 28.66 11.32 29.32 12 30 C12 30.99 12 31.98 12 33 C5.04172727 37.00338979 -2.60461012 37.29383738 -10.39453125 35.42578125 C-13.70014135 34.11049639 -15.00097199 32.99854201 -17 30 C-17 28.68 -17 27.36 -17 26 C-16.00419922 25.70609375 -16.00419922 25.70609375 -14.98828125 25.40625 C-9.36851932 23.50291457 -5.68752725 21.75443664 -2.82421875 16.4296875 C-1.49845857 12.52152242 -1.28607483 8.64282564 -1.140625 4.5390625 C-1 2 -1 2 0 0 Z " fill="#DFDFDF" transform="translate(170,216)"/>
<path d="M0 0 C7.07479837 4.00231451 7.07479837 4.00231451 8.1484375 7 C8.21804688 7.59296875 8.28765625 8.1859375 8.359375 8.796875 C7.3075 8.920625 6.255625 9.044375 5.171875 9.171875 C1.88048709 9.71144679 -0.67523848 10.31418174 -3.640625 11.796875 C-3.970625 12.456875 -4.300625 13.116875 -4.640625 13.796875 C-5.300625 13.796875 -5.960625 13.796875 -6.640625 13.796875 C-7.64322007 16.80466021 -7.94377142 19.33508147 -8.203125 22.484375 C-8.28691406 23.47824219 -8.37070312 24.47210938 -8.45703125 25.49609375 C-8.51761719 26.25535156 -8.57820313 27.01460937 -8.640625 27.796875 C-7.650625 28.126875 -6.660625 28.456875 -5.640625 28.796875 C-6.960625 29.126875 -8.280625 29.456875 -9.640625 29.796875 C-8.650625 31.446875 -7.660625 33.096875 -6.640625 34.796875 C-12.2827593 32.26721479 -16.20786085 27.96913032 -19.578125 22.859375 C-21.60460214 17.01835267 -21.2692357 11.42961222 -18.640625 5.796875 C-13.37271977 -0.30280474 -8.01406719 -3.65137972 0 0 Z " fill="#0B0B0B" transform="translate(268.640625,220.203125)"/>
<path d="M0 0 C0.66 0 1.32 0 2 0 C2 0.66 2 1.32 2 2 C2.66 2 3.32 2 4 2 C4.625 4.375 4.625 4.375 5 7 C3 9 3 9 -0.125 9.125 C-1.07375 9.08375 -2.0225 9.0425 -3 9 C-3.02505615 10.22404541 -3.0501123 11.44809082 -3.07592773 12.70922852 C-3.171271 17.32209852 -3.27116269 21.93486144 -3.37231445 26.54760742 C-3.41519028 28.53065456 -3.45689019 30.51372754 -3.49731445 32.49682617 C-3.73316898 44.02458038 -4.08225991 55.50403857 -5 67 C-11.6953125 67.2265625 -11.6953125 67.2265625 -14.4375 65.1875 C-16 63 -16 63 -16 60 C-17.65 59.67 -19.3 59.34 -21 59 C-20.34 58.01 -19.68 57.02 -19 56 C-17.6078125 56.9590625 -17.6078125 56.9590625 -16.1875 57.9375 C-13.15780057 60.08622093 -13.15780057 60.08622093 -10 61 C-10 41.86 -10 22.72 -10 3 C-6.37 3 -2.74 3 1 3 C0.67 2.01 0.34 1.02 0 0 Z " fill="#DFDFDF" transform="translate(221,213)"/>
<path d="M0 0 C30.69 0 61.38 0 93 0 C93 2.64 93 5.28 93 8 C86.25158562 9.56659619 86.25158562 9.56659619 82.6875 7.953125 C80.72543379 6.70581148 78.84299357 5.41655623 77 4 C76.67 4.66 76.34 5.32 76 6 C76 5.34 76 4.68 76 4 C75.01 4.33 74.02 4.66 73 5 C71.34270821 5.05500314 69.68304176 5.04868634 68.02539062 5.00585938 C67.01424194 4.9825354 66.00309326 4.95921143 64.96130371 4.93518066 C63.87063599 4.90500854 62.77996826 4.87483643 61.65625 4.84375 C60.53561157 4.81776733 59.41497314 4.79178467 58.26037598 4.76501465 C53.45707056 4.65348098 48.65410372 4.52949737 43.85107422 4.40673828 C40.34872087 4.31897784 36.8462604 4.23745778 33.34375 4.15625 C32.25308228 4.12607788 31.16241455 4.09590576 30.03869629 4.06481934 C29.02754761 4.04149536 28.01639893 4.01817139 26.97460938 3.99414062 C25.63916077 3.95963806 25.63916077 3.95963806 24.2767334 3.92443848 C21.83342511 3.89742183 21.83342511 3.89742183 19 5 C19.33 5.66 19.66 6.32 20 7 C19.01 6.67 18.02 6.34 17 6 C10.95306439 5.54542267 5.71960387 6.01057257 0 8 C0 5.36 0 2.72 0 0 Z " fill="#B5B5B5" transform="translate(289,216)"/>
<path d="M0 0 C4.51720311 -0.36625971 4.51720311 -0.36625971 6.8125 1.375 C8 3 8 3 8 5 C8.99 5.33 9.98 5.66 11 6 C11 6.66 11 7.32 11 8 C11.66 8 12.32 8 13 8 C13 8.66 13 9.32 13 10 C13.66 10 14.32 10 15 10 C15 10.99 15 11.98 15 13 C16.32 13.33 17.64 13.66 19 14 C20.17076699 17.98060777 21.25749403 21.91621717 22 26 C21.34 25.67 20.68 25.34 20 25 C20 24.01 20 23.02 20 22 C19.01 22 18.02 22 17 22 C17.00902344 22.6290625 17.01804687 23.258125 17.02734375 23.90625 C16.80655473 30.28033313 15.35409989 33.70022405 11.08203125 38.40625 C6.09005305 42.22750161 0.35300196 42.40084978 -5.6875 42.6875 C-6.44611328 42.73455078 -7.20472656 42.78160156 -7.98632812 42.83007812 C-11.3059808 43.00880612 -13.8182208 43.06059307 -17 42 C-16.97679687 42.84304688 -16.95359375 43.68609375 -16.9296875 44.5546875 C-16.90261719 46.19824219 -16.90261719 46.19824219 -16.875 47.875 C-16.85179687 48.96554687 -16.82859375 50.05609375 -16.8046875 51.1796875 C-17 54 -17 54 -19 56 C-23.71954482 55.73285595 -27.33368881 55.05525932 -31 52 C-32.24701063 49.71381385 -33.09049097 47.45567438 -34 45 C-34.33 44.67 -34.66 44.34 -35 44 C-35.04092937 41.66702567 -35.04241723 39.33294775 -35 37 C-35.62648438 37.01160156 -36.25296875 37.02320313 -36.8984375 37.03515625 C-37.71570313 37.04417969 -38.53296875 37.05320312 -39.375 37.0625 C-40.59316406 37.07990234 -40.59316406 37.07990234 -41.8359375 37.09765625 C-44 37 -44 37 -46 36 C-46 35.01 -46 34.02 -46 33 C-45.113125 33.020625 -44.22625 33.04125 -43.3125 33.0625 C-40.37798345 33.00713176 -37.85960817 32.57192163 -35 32 C-33.38910897 33.61089103 -33.84203899 35.52791576 -33.75 37.75 C-33.40322033 41.67084751 -33.19090069 42.76388599 -30.625 45.9375 C-29.75875 46.618125 -28.8925 47.29875 -28 48 C-27.484375 48.598125 -26.96875 49.19625 -26.4375 49.8125 C-24.79678454 51.42458763 -24.79678454 51.42458763 -21 51 C-20.67 47.37 -20.34 43.74 -20 40 C-14.44109493 38.88821899 -9.43065261 39.01653125 -3.7890625 39.16015625 C0.15829179 38.99330932 3.31258746 38.41428608 7 37 C7.33 36.01 7.66 35.02 8 34 C8.66 34 9.32 34 10 34 C11.96157384 29.89003576 12.2695411 26.53353543 12.25 22 C12.25515625 20.80375 12.2603125 19.6075 12.265625 18.375 C11.88464116 13.53426412 11.04528854 11.06242441 7.6171875 7.578125 C6.25980469 6.42570313 6.25980469 6.42570313 4.875 5.25 C3.23686817 3.84853878 1.6080037 2.4359295 0 1 C0 0.67 0 0.34 0 0 Z " fill="#CACACA" transform="translate(312,224)"/>
<path d="M0 0 C11.55 0 23.1 0 35 0 C35 1.65 35 3.3 35 5 C25.43 5 15.86 5 6 5 C5.67 9.62 5.34 14.24 5 19 C2.27832672 24.50972884 0.4892564 27.78352387 -5.25 30.0625 C-9 31 -9 31 -11 31 C-9.45013768 36.11387701 -9.45013768 36.11387701 -5.5625 39.375 C-0.40003457 40.28069569 4.7717794 40.67852365 10 41 C10 41.33 10 41.66 10 42 C7.89590361 42.02701408 5.79170822 42.04640223 3.6875 42.0625 C1.92986328 42.07990234 1.92986328 42.07990234 0.13671875 42.09765625 C-3 42 -3 42 -6 41 C-3.72322207 43.56229028 -1.58712708 44.80703414 1.5625 46.125 C2.34753906 46.45757812 3.13257813 46.79015625 3.94140625 47.1328125 C4.96041016 47.56207031 4.96041016 47.56207031 6 48 C6.66 48.33 7.32 48.66 8 49 C14.7343041 49.35225591 21.342642 49.02420892 28 48 C28 47.34 28 46.68 28 46 C30.31 45.01 32.62 44.02 35 43 C35 44.98 35 46.96 35 49 C26.29305364 54.15967192 17.79727205 53.38047658 8 53 C8 52.34 8 51.68 8 51 C5.36 50.67 2.72 50.34 0 50 C0 49.34 0 48.68 0 48 C-1.32 47.67 -2.64 47.34 -4 47 C-4 46.34 -4 45.68 -4 45 C-4.99 45 -5.98 45 -7 45 C-7 44.34 -7 43.68 -7 43 C-8.32 43 -9.64 43 -11 43 C-13 37.375 -13 37.375 -13 34 C-13.94978897 31.84971696 -13.94978897 31.84971696 -15 30 C-13.824375 29.62875 -12.64875 29.2575 -11.4375 28.875 C-5.83489087 26.7553628 -1.34332252 23.68664503 1.375 18.25 C2.09017508 14.53108956 2.47738917 10.84952342 2.75390625 7.07421875 C3 5 3 5 4 4 C6.69235776 3.76321284 9.36498156 3.57801975 12.0625 3.4375 C12.82111328 3.39431641 13.57972656 3.35113281 14.36132812 3.30664062 C16.24065438 3.20026367 18.12030244 3.09960066 20 3 C20 2.67 20 2.34 20 2 C22.97 2 25.94 2 29 2 C29 2.66 29 3.32 29 4 C29.99 4 30.98 4 32 4 C32.33 3.34 32.66 2.68 33 2 C33.33 1.67 33.66 1.34 34 1 C22.78 1 11.56 1 0 1 C0 0.67 0 0.34 0 0 Z " fill="#484848" transform="translate(164,211)"/>
<path d="M0 0 C0.66 0.33 1.32 0.66 2 1 C1.67 2.65 1.34 4.3 1 6 C-1.64 6.33 -4.28 6.66 -7 7 C-7 25.15 -7 43.3 -7 62 C-9.64 62 -12.28 62 -15 62 C-15 61.34 -15 60.68 -15 60 C-16.65 60 -18.3 60 -20 60 C-20.99 56.535 -20.99 56.535 -22 53 C-21.45730469 53.42152344 -20.91460937 53.84304688 -20.35546875 54.27734375 C-19.64003906 54.82519531 -18.92460937 55.37304688 -18.1875 55.9375 C-17.12595703 56.75541016 -17.12595703 56.75541016 -16.04296875 57.58984375 C-13.95874948 59.16856248 -13.95874948 59.16856248 -11 60 C-11 40.86 -11 21.72 -11 2 C-7.37 2 -3.74 2 0 2 C0 1.34 0 0.68 0 0 Z " fill="#B5B5B5" transform="translate(426,214)"/>
<path d="M0 0 C0.99 0.33 1.98 0.66 3 1 C5.65606301 1.15346953 8.29095095 1.25717898 10.94921875 1.31640625 C12.10814384 1.3475779 12.10814384 1.3475779 13.29048157 1.37937927 C15.7560648 1.44471038 18.22175361 1.50368315 20.6875 1.5625 C22.36003691 1.60570087 24.03256319 1.64931566 25.70507812 1.69335938 C29.8032775 1.8003749 33.90158296 1.90168857 38 2 C38 5.3 38 8.6 38 12 C36.93072266 11.3503125 36.93072266 11.3503125 35.83984375 10.6875 C28.43220764 6.2214294 28.43220764 6.2214294 20 6 C17.21692394 7.33542672 17.21692394 7.33542672 15 9 C14.01 9.495 14.01 9.495 13 10 C13 9.01 13 8.02 13 7 C10.36 7 7.72 7 5 7 C5.12375 8.3921875 5.12375 8.3921875 5.25 9.8125 C5 13 5 13 3.375 14.875 C0.33680449 16.31414524 -1.67439432 16.42454541 -5 16 C-6.875 14.5 -6.875 14.5 -8 13 C-7.67 12.01 -7.34 11.02 -7 10 C-5.68 10 -4.36 10 -3 10 C-2.67 9.34 -2.34 8.68 -2 8 C-1.34 8 -0.68 8 0 8 C0 5.36 0 2.72 0 0 Z " fill="#D7D7D7" transform="translate(239,214)"/>
<path d="M0 0 C9.57 0 19.14 0 29 0 C29 1.65 29 3.3 29 5 C28.67 4.34 28.34 3.68 28 3 C20.08 3.33 12.16 3.66 4 4 C3.67 22.48 3.34 40.96 3 60 C1.35 60 -0.3 60 -2 60 C-2.33 59.34 -2.66 58.68 -3 58 C-2.01 58 -1.02 58 0 58 C0 38.86 0 19.72 0 0 Z " fill="#727273" transform="translate(126,216)"/>
<path d="M0 0 C0.33 0.66 0.66 1.32 1 2 C1.66 2 2.32 2 3 2 C4.21875 3.6796875 4.21875 3.6796875 5.5 5.875 C6.89818809 8.25362486 8.03792084 10.03792084 10 12 C10 12.99 10 13.98 10 15 C5.4667153 17.61615514 2.15916257 18.40909138 -3.0625 18.375 C-4.84333984 18.38660156 -4.84333984 18.38660156 -6.66015625 18.3984375 C-10.20786762 17.97520176 -12.12076215 17.05737601 -15 15 C-15 12.8125 -15 12.8125 -14 10 C-12.05234047 8.53176435 -10.05454368 7.37069694 -7.91015625 6.2109375 C-5.70155745 4.99188612 -5.70155745 4.99188612 -4 2 C-1.875 0.8125 -1.875 0.8125 0 0 Z " fill="#F4F4F4" transform="translate(172,234)"/>
<path d="M0 0 C5.15171623 -0.09038099 9.91913204 0.15318867 15 1 C15 2.65 15 4.3 15 6 C13.02 6 11.04 6 9 6 C9.05220703 7.32064453 9.05220703 7.32064453 9.10546875 8.66796875 C9.13253906 9.82941406 9.15960938 10.99085938 9.1875 12.1875 C9.23970703 13.91033203 9.23970703 13.91033203 9.29296875 15.66796875 C8.97225764 19.31552306 8.10875422 21.05707028 6 24 C5.46375 24.763125 4.9275 25.52625 4.375 26.3125 C0.74208702 28.89378028 -2.68229218 28.52200267 -7 28 C-10.5625 27 -10.5625 27 -13 26 C-13 25.34 -13 24.68 -13 24 C-13.86625 23.9071875 -13.86625 23.9071875 -14.75 23.8125 C-17.92448483 22.66615826 -19.12848575 20.74043158 -21 18 C-21 17.34 -21 16.68 -21 16 C-21.66 16 -22.32 16 -23 16 C-22.67 14.68 -22.34 13.36 -22 12 C-21.67128906 12.54269531 -21.34257813 13.08539063 -21.00390625 13.64453125 C-17.74122901 18.55181002 -15.06876733 21.13870503 -9.32421875 22.6796875 C-5.67158265 23.183076 -2.60743629 22.72148726 1 22 C1.309375 21.195625 1.61875 20.39125 1.9375 19.5625 C3 17 3 17 4 16 C4.37370359 12.63666771 4.41259482 9.35970067 4 6 C2.16658535 3.49479421 2.16658535 3.49479421 0 2 C0 1.34 0 0.68 0 0 Z " fill="#D0D0D0" transform="translate(99,234)"/>
<path d="M0 0 C3.7990944 2.45102864 3.7990944 2.45102864 4.61328125 4.67578125 C5.12970715 7.77955307 5.20970909 10.79145128 5.25 13.9375 C5.27578125 15.14277344 5.3015625 16.34804687 5.328125 17.58984375 C4.97695385 21.23951533 4.24467323 23.12877963 2 26 C1.34 26 0.68 26 0 26 C-0.33 27.32 -0.66 28.64 -1 30 C-6.77156038 31.98911307 -11.86242741 32.2451155 -17.9375 32.125 C-18.81212891 32.11597656 -19.68675781 32.10695313 -20.58789062 32.09765625 C-22.72538064 32.0742957 -24.86272786 32.03843247 -27 32 C-27.33 35.63 -27.66 39.26 -28 43 C-30.475 43.495 -30.475 43.495 -33 44 C-33.99 42.68 -34.98 41.36 -36 40 C-34.35 40.66 -32.7 41.32 -31 42 C-31 36.72 -31 31.44 -31 26 C-29.35 26.33 -27.7 26.66 -26 27 C-26 27.66 -26 28.32 -26 29 C-23.14240215 28.60084347 -20.29026539 28.18136125 -17.4375 27.75 C-16.23770508 27.58564453 -16.23770508 27.58564453 -15.01367188 27.41796875 C-8.63433917 26.42852123 -3.87763782 24.71939704 0.91796875 20.1875 C2.46345136 17.06305863 2.36023832 14.46653618 2.3125 11 C2.30669922 9.1746875 2.30669922 9.1746875 2.30078125 7.3125 C2.02418833 4.26638572 1.6023478 2.55354231 0 0 Z " fill="#999999" transform="translate(320,232)"/>
<path d="M0 0 C0.33970194 4.33119974 0.6094606 7.83407537 -1.4375 11.75 C-6.09527052 15.83974973 -10.70776426 19 -17 19 C-17.05410687 17.22950311 -17.09284119 15.45853151 -17.125 13.6875 C-17.14820313 12.70136719 -17.17140625 11.71523437 -17.1953125 10.69921875 C-17 8 -17 8 -15 5 C-14.34 5 -13.68 5 -13 5 C-12.814375 4.38125 -12.62875 3.7625 -12.4375 3.125 C-11 1 -11 1 -7.625 -0.3125 C-4.27863544 -0.94715535 -3.08541065 -0.94465216 0 0 Z " fill="#8A8A8A" transform="translate(277,229)"/>
<path d="M0 0 C3.3 0 6.6 0 10 0 C9.67 1.32 9.34 2.64 9 4 C7.35 4 5.7 4 4 4 C3.67 22.48 3.34 40.96 3 60 C1.35 60 -0.3 60 -2 60 C-2 59.34 -2 58.68 -2 58 C-1.34 58 -0.68 58 0 58 C0 38.86 0 19.72 0 0 Z " fill="#7D7D7D" transform="translate(394,216)"/>
<path d="M0 0 C2.5 0.125 2.5 0.125 3.5 1.125 C3.59304018 2.59854348 3.61746265 4.07650591 3.61352539 5.55297852 C3.61344986 6.49387833 3.61337433 7.43477814 3.61329651 8.40419006 C3.60813522 9.42709641 3.60297394 10.45000275 3.59765625 11.50390625 C3.5962413 12.54570541 3.59482635 13.58750458 3.59336853 14.66087341 C3.5877508 18.00311094 3.5751953 21.34528257 3.5625 24.6875 C3.55748728 26.94726466 3.55292398 29.20703037 3.54882812 31.46679688 C3.53777561 37.01955391 3.52102024 42.57227225 3.5 48.125 C3.17 48.125 2.84 48.125 2.5 48.125 C2.5 32.945 2.5 17.765 2.5 2.125 C1.51 2.455 0.52 2.785 -0.5 3.125 C-0.5154612 4.13644325 -0.5154612 4.13644325 -0.53123474 5.1683197 C-0.63905769 12.15943582 -0.75367443 19.15041667 -0.87231445 26.14135742 C-0.91574124 28.75363344 -0.95741038 31.36593928 -0.99731445 33.97827148 C-1.05483007 37.72388719 -1.11857764 41.46935169 -1.18359375 45.21484375 C-1.20866249 46.97887794 -1.20866249 46.97887794 -1.23423767 48.77854919 C-1.25418289 49.85959427 -1.27412811 50.94063934 -1.29467773 52.05444336 C-1.31022202 53.01152695 -1.3257663 53.96861053 -1.34178162 54.95469666 C-1.5 57.125 -1.5 57.125 -2.5 58.125 C-9.02542373 58.36228814 -9.02542373 58.36228814 -11.5 57.125 C-11.5 56.465 -11.5 55.805 -11.5 55.125 C-13.15 54.795 -14.8 54.465 -16.5 54.125 C-17.49 50.66 -17.49 50.66 -18.5 47.125 C-18.02949219 47.53492188 -17.55898438 47.94484375 -17.07421875 48.3671875 C-16.45160156 48.90601563 -15.82898438 49.44484375 -15.1875 50 C-14.57261719 50.53367187 -13.95773437 51.06734375 -13.32421875 51.6171875 C-11.36501788 53.2890447 -11.36501788 53.2890447 -8.5 55.125 C-8.5 55.785 -8.5 56.445 -8.5 57.125 C-6.85 57.125 -5.2 57.125 -3.5 57.125 C-3.50222061 56.42564835 -3.50444122 55.72629669 -3.50672913 55.00575256 C-3.5267328 48.42795079 -3.54197452 41.85015746 -3.55181217 35.27233219 C-3.55703975 31.89028187 -3.56413511 28.5082566 -3.57543945 25.1262207 C-3.58834267 21.24170223 -3.59322924 17.35719403 -3.59765625 13.47265625 C-3.60281754 12.25288589 -3.60797882 11.03311554 -3.61329651 9.77638245 C-3.61337204 8.65529587 -3.61344757 7.53420929 -3.61352539 6.37915039 C-3.615746 5.38653702 -3.61796661 4.39392365 -3.62025452 3.37123108 C-3.44948671 0.18146348 -3.20466588 0.16023329 0 0 Z " fill="#BFBFBF" transform="translate(400.5,218.875)"/>
<path d="M0 0 C3.3 0 6.6 0 10 0 C10 0.66 10 1.32 10 2 C8.02 2.66 6.04 3.32 4 4 C3.67 22.48 3.34 40.96 3 60 C1.35 60 -0.3 60 -2 60 C-2.33 59.34 -2.66 58.68 -3 58 C-2.01 58 -1.02 58 0 58 C0 38.86 0 19.72 0 0 Z " fill="#7E7E7E" transform="translate(211,216)"/>
<path d="M0 0 C1.32 0.66 2.64 1.32 4 2 C4 2.99 4 3.98 4 5 C4.99 5.33 5.98 5.66 7 6 C7 7.32 7 8.64 7 10 C3.91111478 12.05925681 3.29064073 12.2390374 -0.1875 12.125 C-2.0746875 12.063125 -2.0746875 12.063125 -4 12 C-3.99555878 12.69713104 -3.99111755 13.39426208 -3.98654175 14.11251831 C-3.94650414 20.67527726 -3.91603558 27.23800225 -3.89637566 33.80085564 C-3.88592858 37.17506994 -3.87175275 40.54918352 -3.84912109 43.92333984 C-3.82495115 47.80048318 -3.81353489 51.67748277 -3.8046875 55.5546875 C-3.79436493 56.76929657 -3.78404236 57.98390564 -3.77340698 59.23532104 C-3.77325592 60.35633209 -3.77310486 61.47734314 -3.77294922 62.63232422 C-3.768508 63.62271698 -3.76406677 64.61310974 -3.75949097 65.6335144 C-4 68 -4 68 -6 70 C-10.40867812 69.70608813 -13.36337396 68.46007056 -17 66 C-16.505 65.01 -16.505 65.01 -16 64 C-15.34 64 -14.68 64 -14 64 C-14 64.66 -14 65.32 -14 66 C-11.36 66 -8.72 66 -6 66 C-6 47.85 -6 29.7 -6 11 C-3.36 10.34 -0.72 9.68 2 9 C2.43386092 5.12202338 2.43386092 5.12202338 0.5 3.25 C0.005 2.8375 -0.49 2.425 -1 2 C-0.67 1.34 -0.34 0.68 0 0 Z " fill="#DDDDDD" transform="translate(425,210)"/>
<path d="M0 0 C0 0.66 0 1.32 0 2 C-3 3 -6 4 -9 5 C-9.16834933 6.77067416 -9.33461909 8.54154612 -9.5 10.3125 C-9.5928125 11.29863281 -9.685625 12.28476563 -9.78125 13.30078125 C-10.04038857 16.04702139 -10.04038857 16.04702139 -10 19 C-9.360625 19.268125 -8.72125 19.53625 -8.0625 19.8125 C-6 21 -6 21 -5 24 C-4.34 24.33 -3.68 24.66 -3 25 C-2.34 25.33 -1.68 25.66 -1 26 C-0.67 26.99 -0.34 27.98 0 29 C0.99 29.33 1.98 29.66 3 30 C3 30.66 3 31.32 3 32 C3.66 32.33 4.32 32.66 5 33 C4.67 33.66 4.34 34.32 4 35 C4.804375 35.20625 5.60875 35.4125 6.4375 35.625 C7.283125 36.07875 8.12875 36.5325 9 37 C9.8125 40.125 9.8125 40.125 10 43 C6.09628463 41.69876154 5.1829398 39.88284282 2.8125 36.5625 C2.09707031 35.57378906 1.38164062 34.58507812 0.64453125 33.56640625 C-1 31 -1 31 -1 29 C-1.556875 28.731875 -2.11375 28.46375 -2.6875 28.1875 C-3.450625 27.795625 -4.21375 27.40375 -5 27 C-5.825 26.5875 -6.65 26.175 -7.5 25.75 C-11.35462563 23.05176206 -13.50949592 20.21793151 -14.5390625 15.5625 C-15.12520246 10.98242965 -15.57348982 7.04405544 -13 3 C-8.78866898 -0.93057562 -5.48455614 -1.37113904 0 0 Z " fill="#E4E4E4" transform="translate(360,240)"/>
<path d="M0 0 C0.98613281 0.00322266 1.97226563 0.00644531 2.98828125 0.00976562 C4.02082031 0.01814453 5.05335938 0.02652344 6.1171875 0.03515625 C7.67759766 0.04192383 7.67759766 0.04192383 9.26953125 0.04882812 C11.84380712 0.06063673 14.41796896 0.0771055 16.9921875 0.09765625 C16.6621875 1.08765625 16.3321875 2.07765625 15.9921875 3.09765625 C8.7321875 2.76765625 1.4721875 2.43765625 -6.0078125 2.09765625 C-6.0078125 20.90765625 -6.0078125 39.71765625 -6.0078125 59.09765625 C-8.6478125 59.09765625 -11.2878125 59.09765625 -14.0078125 59.09765625 C-14.0078125 58.43765625 -14.0078125 57.77765625 -14.0078125 57.09765625 C-14.6678125 57.09765625 -15.3278125 57.09765625 -16.0078125 57.09765625 C-16.0078125 56.43765625 -16.0078125 55.77765625 -16.0078125 55.09765625 C-16.9978125 54.76765625 -17.9878125 54.43765625 -19.0078125 54.09765625 C-20.6953125 52.03515625 -20.6953125 52.03515625 -22.0078125 50.09765625 C-21.6778125 49.43765625 -21.3478125 48.77765625 -21.0078125 48.09765625 C-19.5078125 49.47265625 -19.5078125 49.47265625 -18.0078125 51.09765625 C-18.0078125 51.75765625 -18.0078125 52.41765625 -18.0078125 53.09765625 C-17.04875 53.28328125 -17.04875 53.28328125 -16.0703125 53.47265625 C-15.3896875 53.67890625 -14.7090625 53.88515625 -14.0078125 54.09765625 C-13.6778125 54.75765625 -13.3478125 55.41765625 -13.0078125 56.09765625 C-10.48048015 56.75320744 -10.48048015 56.75320744 -8.0078125 57.09765625 C-8.01003311 56.46982742 -8.01225372 55.8419986 -8.01454163 55.19514465 C-8.03667393 48.65769012 -8.05175234 42.12024624 -8.06274414 35.58276367 C-8.06777128 33.14330615 -8.0745939 30.70385164 -8.08325195 28.2644043 C-8.09538833 24.75699114 -8.10105705 21.24961784 -8.10546875 17.7421875 C-8.11063004 16.65243118 -8.11579132 15.56267487 -8.12110901 14.43989563 C-8.12118454 13.41921494 -8.12126007 12.39853424 -8.12133789 11.34692383 C-8.1235585 10.45201736 -8.12577911 9.5571109 -8.12806702 8.63508606 C-8.00338609 6.00425686 -7.71020422 3.63759283 -7.0078125 1.09765625 C-4.50284246 -0.15482877 -2.79927976 -0.01608781 0 0 Z " fill="#C9C9C9" transform="translate(137.0078125,218.90234375)"/>
<path d="M0 0 C2.1875 -0.3125 2.1875 -0.3125 5 0 C7.75 2.4375 7.75 2.4375 10 5 C10.33 5.33 10.66 5.66 11 6 C11.16796875 7.99609375 11.16796875 7.99609375 11.1875 10.4375 C11.20167969 11.24058594 11.21585938 12.04367187 11.23046875 12.87109375 C11 15 11 15 9 17 C6.8359375 16.9765625 6.8359375 16.9765625 4.375 16.625 C3.14910156 16.45871094 3.14910156 16.45871094 1.8984375 16.2890625 C0.95871094 16.14597656 0.95871094 16.14597656 0 16 C-1.97094808 11.07262981 -2.1799928 7.21979128 -2 2 C-1.34 2 -0.68 2 0 2 C0 1.34 0 0.68 0 0 Z " fill="#101010" transform="translate(231,246)"/>
<path d="M0 0 C0.50130606 5.26371362 -0.68831371 7.9090934 -4 12 C-4.66 12 -5.32 12 -6 12 C-6 12.66 -6 13.32 -6 14 C-14.42857143 17.42857143 -14.42857143 17.42857143 -19 17 C-18.46175151 12.42488786 -16.89814327 9.56694556 -14 6 C-9.69439359 2.76211453 -5.52287665 0 0 0 Z " fill="#F6F6F6" transform="translate(312,234)"/>
<path d="M0 0 C0.90070724 0.02024734 1.80141449 0.04049469 2.72941589 0.06135559 C3.69825211 0.09871323 4.66708832 0.13607086 5.6652832 0.17456055 C6.65986038 0.20100143 7.65443756 0.22744232 8.67915344 0.25468445 C11.85872936 0.34252097 15.03717265 0.45164579 18.21606445 0.5612793 C20.37032062 0.62453034 22.52461792 0.68639665 24.67895508 0.74682617 C29.96274073 0.89807329 35.24575256 1.06680766 40.52856445 1.2487793 C40.52856445 1.5787793 40.52856445 1.9087793 40.52856445 2.2487793 C28.31856445 2.5787793 16.10856445 2.9087793 3.52856445 3.2487793 C3.19856445 6.2187793 2.86856445 9.1887793 2.52856445 12.2487793 C1.86856445 12.2487793 1.20856445 12.2487793 0.52856445 12.2487793 C0.19856445 13.2387793 -0.13143555 14.2287793 -0.47143555 15.2487793 C-6.34643555 14.3737793 -6.34643555 14.3737793 -7.47143555 13.2487793 C-7.67456055 11.0690918 -7.67456055 11.0690918 -7.72143555 8.3737793 C-7.7472168 7.48948242 -7.77299805 6.60518555 -7.79956055 5.6940918 C-7.16103339 0.93554414 -4.48289552 -0.13812843 0 0 Z " fill="#272727" transform="translate(236.471435546875,209.751220703125)"/>
<path d="M0 0 C-0.33 0.99 -0.66 1.98 -1 3 C-2.85625 3.1546875 -2.85625 3.1546875 -4.75 3.3125 C-8.33513409 3.61126117 -10.40286388 4.45944637 -13 7 C-14.47993341 11.62580278 -14.56851444 16.43650116 -12.6875 20.9375 C-10.18444576 25.48007992 -8.38759879 27.38833405 -4 30 C-1.31979608 32.38240349 -0.14462392 33.56612823 1 37 C0.34 37 -0.32 37 -1 37 C-0.67 38.65 -0.34 40.3 0 42 C-2 41 -2 41 -2.88671875 38.6875 C-4.12282595 35.70349384 -5.4826742 34.20954798 -7.8125 32 C-8.5240625 31.31421875 -9.235625 30.6284375 -9.96875 29.921875 C-10.6390625 29.28765625 -11.309375 28.6534375 -12 28 C-14.93819013 25.12710298 -17.63337398 22.36310013 -20 19 C-19.34 19 -18.68 19 -18 19 C-17.94392578 17.89591797 -17.94392578 17.89591797 -17.88671875 16.76953125 C-17.19669308 6.52738546 -17.19669308 6.52738546 -14 3 C-9.2172507 -0.22557511 -5.56663461 -0.28792938 0 0 Z " fill="#1F1F1F" transform="translate(360,237)"/>
<path d="M0 0 C4.51720311 -0.36625971 4.51720311 -0.36625971 6.8125 1.375 C8 3 8 3 8 5 C8.99 5.33 9.98 5.66 11 6 C11 6.66 11 7.32 11 8 C11.66 8 12.32 8 13 8 C13 8.66 13 9.32 13 10 C13.66 10 14.32 10 15 10 C15 10.99 15 11.98 15 13 C16.32 13.33 17.64 13.66 19 14 C20.17076699 17.98060777 21.25749403 21.91621717 22 26 C21.34 25.67 20.68 25.34 20 25 C20 24.01 20 23.02 20 22 C19.01 22 18.02 22 17 22 C16.97873047 23.01320312 16.97873047 23.01320312 16.95703125 24.046875 C16.56519279 31.37531323 16.56519279 31.37531323 13.625 34.625 C11 36 11 36 8 36 C8 35.34 8 34.68 8 34 C8.66 34 9.32 34 10 34 C11.96157384 29.89003576 12.2695411 26.53353543 12.25 22 C12.25515625 20.80375 12.2603125 19.6075 12.265625 18.375 C11.88464116 13.53426412 11.04528854 11.06242441 7.6171875 7.578125 C6.71226562 6.80984375 5.80734375 6.0415625 4.875 5.25 C3.23686817 3.84853878 1.6080037 2.4359295 0 1 C0 0.67 0 0.34 0 0 Z " fill="#C3C3C3" transform="translate(312,224)"/>
<path d="M0 0 C4.37418249 -0.02497996 8.74832563 -0.04299062 13.12255859 -0.05493164 C14.60628992 -0.05991708 16.09001646 -0.06670785 17.57373047 -0.07543945 C25.77812616 -0.12246397 33.84300472 -0.0216355 42 1 C42 1.99 42 2.98 42 4 C28.8 4 15.6 4 2 4 C2 3.01 2 2.02 2 1 C1.34 0.67 0.68 0.34 0 0 Z " fill="#898989" transform="translate(72,215)"/>
<path d="M0 0 C0.92619141 0.47179687 0.92619141 0.47179687 1.87109375 0.953125 C3.65010046 1.85210556 5.4343588 2.74073975 7.22265625 3.62109375 C8.91165359 4.45965361 10.5898691 5.32109396 12.24609375 6.22265625 C20.76467545 10.58354487 29.8060779 9.41444955 39 8 C39 7.34 39 6.68 39 6 C42.465 4.515 42.465 4.515 46 3 C46 4.98 46 6.96 46 9 C37.29305364 14.15967192 28.79727205 13.38047658 19 13 C19 12.34 19 11.68 19 11 C16.36 10.67 13.72 10.34 11 10 C11 9.34 11 8.68 11 8 C9.68 7.67 8.36 7.34 7 7 C7 6.34 7 5.68 7 5 C6.01 5 5.02 5 4 5 C4 4.34 4 3.68 4 3 C2.68 3 1.36 3 0 3 C0 2.01 0 1.02 0 0 Z " fill="#B2B2B2" transform="translate(153,251)"/>
<path d="M0 0 C0.33 2.31 0.66 4.62 1 7 C0.67 6.01 0.34 5.02 0 4 C-0.59167969 4.26554688 -1.18335938 4.53109375 -1.79296875 4.8046875 C-2.58316406 5.15789062 -3.37335938 5.51109375 -4.1875 5.875 C-5.00734375 6.24496094 -5.8271875 6.61492187 -6.671875 6.99609375 C-9 8 -9 8 -11.9375 8.9375 C-14.1997847 9.8461457 -14.1997847 9.8461457 -15.125 12.25 C-15.41375 13.1575 -15.7025 14.065 -16 15 C-16.98482022 17.00751815 -17.98152514 19.00934459 -19 21 C-20.32 21 -21.64 21 -23 21 C-23.48613192 16.93472181 -23.22525823 15.32919171 -20.875 11.89453125 C-19.93652521 10.84901557 -18.97710324 9.8220084 -18 8.8125 C-17.50105225 8.28366211 -17.00210449 7.75482422 -16.48803711 7.20996094 C-11.35578957 1.98804919 -7.37915949 0 0 0 Z " fill="#7D7D7D" transform="translate(312,230)"/>
<path d="M0 0 C30.69 0 61.38 0 93 0 C92.67 0.66 92.34 1.32 92 2 C62.63 2 33.26 2 3 2 C3.33 3.65 3.66 5.3 4 7 C2.68 7.33 1.36 7.66 0 8 C0 5.36 0 2.72 0 0 Z " fill="#888788" transform="translate(289,216)"/>
<path d="M0 0 C1.08966064 -0.00193359 2.17932129 -0.00386719 3.30200195 -0.00585938 C4.49913818 -0.00134766 5.69627441 0.00316406 6.9296875 0.0078125 C8.79403442 0.01071289 8.79403442 0.01071289 10.69604492 0.01367188 C28.73606523 0.07534573 46.77264555 0.63173736 64.8046875 1.1328125 C64.8046875 1.4628125 64.8046875 1.7928125 64.8046875 2.1328125 C45.6646875 2.1328125 26.5246875 2.1328125 6.8046875 2.1328125 C7.4646875 3.4528125 8.1246875 4.7728125 8.8046875 6.1328125 C7.8146875 5.8028125 6.8246875 5.4728125 5.8046875 5.1328125 C3.23202932 5.06252129 0.68827319 5.03910418 -1.8828125 5.0703125 C-2.58470703 5.07482422 -3.28660156 5.07933594 -4.00976562 5.08398438 C-5.73831788 5.09574323 -7.46682615 5.11367796 -9.1953125 5.1328125 C-8.8828125 3.1953125 -8.8828125 3.1953125 -8.1953125 1.1328125 C-5.17239993 0.12517498 -3.16069589 0.00379957 0 0 Z " fill="#A7A6A7" transform="translate(300.1953125,216.8671875)"/>
<path d="M0 0 C0.99 0 1.98 0 3 0 C2.67 19.47 2.34 38.94 2 59 C0.35 59 -1.3 59 -3 59 C-1.515 58.505 -1.515 58.505 0 58 C0 38.86 0 19.72 0 0 Z " fill="#616161" transform="translate(415,216)"/>
<path d="M0 0 C9.57 0 19.14 0 29 0 C29 0.66 29 1.32 29 2 C20.09 2 11.18 2 2 2 C1.67 6.29 1.34 10.58 1 15 C-1.12767767 19.54596497 -4.28470021 23.91184615 -9.0859375 25.8359375 C-11 26.125 -11 26.125 -14 26 C-14 26.66 -14 27.32 -14 28 C-14.66 28 -15.32 28 -16 28 C-16.33 28.66 -16.66 29.32 -17 30 C-17 28.68 -17 27.36 -17 26 C-16.00419922 25.70609375 -16.00419922 25.70609375 -14.98828125 25.40625 C-9.36851932 23.50291457 -5.68752725 21.75443664 -2.82421875 16.4296875 C-1.49845857 12.52152242 -1.28607483 8.64282564 -1.140625 4.5390625 C-1 2 -1 2 0 0 Z " fill="#8F8F8F" transform="translate(170,216)"/>
<path d="M0 0 C14.85 0 29.7 0 45 0 C45 0.66 45 1.32 45 2 C44.34 2 43.68 2 43 2 C43 2.66 43 3.32 43 4 C31.45 3.67 19.9 3.34 8 3 C8 2.67 8 2.34 8 2 C5.36 1.67 2.72 1.34 0 1 C0 0.67 0 0.34 0 0 Z " fill="#040405" transform="translate(336,212)"/>
<path d="M0 0 C1.49249268 0.01571045 1.49249268 0.01571045 3.01513672 0.03173828 C4.6296875 0.04140625 4.6296875 0.04140625 6.27685547 0.05126953 C7.40478516 0.06802734 8.53271484 0.08478516 9.69482422 0.10205078 C11.39832031 0.11558594 11.39832031 0.11558594 13.13623047 0.12939453 C15.94763721 0.1530198 18.7586272 0.18596065 21.56982422 0.22705078 C21.56982422 0.88705078 21.56982422 1.54705078 21.56982422 2.22705078 C13.64982422 2.55705078 5.72982422 2.88705078 -2.43017578 3.22705078 C-2.76017578 21.70705078 -3.09017578 40.18705078 -3.43017578 59.22705078 C-3.76017578 59.22705078 -4.09017578 59.22705078 -4.43017578 59.22705078 C-4.47646997 51.82974319 -4.51203005 44.43246671 -4.53380013 37.03504372 C-4.54424748 33.60029619 -4.55842384 30.16564761 -4.58105469 26.73095703 C-4.60689641 22.7843544 -4.61664071 18.83779215 -4.62548828 14.89111328 C-4.63581085 13.65463043 -4.64613342 12.41814758 -4.6567688 11.14419556 C-4.65691986 10.00316376 -4.65707092 8.86213196 -4.65722656 7.68652344 C-4.66166779 6.67836578 -4.66610901 5.67020813 -4.67068481 4.63150024 C-4.33109278 1.23648477 -3.39450334 0.31714769 0 0 Z " fill="#A4A4A4" transform="translate(132.43017578125,216.77294921875)"/>
<path d="M0 0 C0.66 0 1.32 0 2 0 C2.56164384 9.54794521 2.56164384 9.54794521 -1 14 C-1.53625 14.763125 -2.0725 15.52625 -2.625 16.3125 C-6.25791298 18.89378028 -9.68229218 18.52200267 -14 18 C-17.5625 17 -17.5625 17 -20 16 C-20 15.34 -20 14.68 -20 14 C-20.5775 13.938125 -21.155 13.87625 -21.75 13.8125 C-24.92448483 12.66615826 -26.12848575 10.74043158 -28 8 C-28 7.34 -28 6.68 -28 6 C-28.66 6 -29.32 6 -30 6 C-29.67 4.68 -29.34 3.36 -29 2 C-28.62488281 2.55429688 -28.24976562 3.10859375 -27.86328125 3.6796875 C-24.03562705 9.26332048 -24.03562705 9.26332048 -18 12 C-18 12.66 -18 13.32 -18 14 C-9.79999257 14.31515028 -9.79999257 14.31515028 -2 12 C-0.78306124 9.56612247 -0.68040104 7.58161154 -0.4375 4.875 C-0.35371094 3.96492187 -0.26992187 3.05484375 -0.18359375 2.1171875 C-0.09271484 1.06917969 -0.09271484 1.06917969 0 0 Z " fill="#AEAEAE" transform="translate(106,244)"/>
<path d="M0 0 C0.34145336 3.67062366 0.30049843 5.52142843 -1.6875 8.6875 C-4.03653411 11.03653411 -5.96997038 12.63648667 -9 14 C-11.3125 13.6875 -11.3125 13.6875 -13 13 C-12.68033924 7.72559742 -9.60963971 4.56176651 -6 1 C-4 0 -4 0 0 0 Z " fill="#EEEEEE" transform="translate(277,232)"/>
<path d="M0 0 C0.99 0.33 1.98 0.66 3 1 C5.65606301 1.15346953 8.29095095 1.25717898 10.94921875 1.31640625 C12.10814384 1.3475779 12.10814384 1.3475779 13.29048157 1.37937927 C15.7560648 1.44471038 18.22175361 1.50368315 20.6875 1.5625 C22.36003691 1.60570087 24.03256319 1.64931566 25.70507812 1.69335938 C29.8032775 1.8003749 33.90158296 1.90168857 38 2 C38 2.33 38 2.66 38 3 C30.27492084 3.77718054 22.5697452 4.25897726 14.8125 4.5625 C13.76513672 4.60568359 12.71777344 4.64886719 11.63867188 4.69335938 C9.09253603 4.79799509 6.54632822 4.90017546 4 5 C3.67 6.65 3.34 8.3 3 10 C2.34 10 1.68 10 1 10 C1 10.99 1 11.98 1 13 C-1.31 12.67 -3.62 12.34 -6 12 C-4.71034824 10.62437146 -3.37310707 9.29233607 -2 8 C-1.34 8 -0.68 8 0 8 C0 5.36 0 2.72 0 0 Z " fill="#8B8B8B" transform="translate(239,214)"/>
<path d="M0 0 C2.5 1.3125 2.5 1.3125 5 3 C5 3.99 5 4.98 5 6 C18.2 6 31.4 6 45 6 C45 7.98 45 9.96 45 12 C44.505 10.02 44.505 10.02 44 8 C42.25928223 8.01571045 42.25928223 8.01571045 40.48339844 8.03173828 C36.17467335 8.06795983 31.86596171 8.09090836 27.55712891 8.10986328 C25.69284806 8.11991593 23.82858297 8.13356005 21.96435547 8.15087891 C19.28348909 8.17515953 16.60283134 8.18649047 13.921875 8.1953125 C13.08944275 8.20563507 12.2570105 8.21595764 11.39935303 8.22659302 C3.80461904 8.22806293 3.80461904 8.22806293 1 6 C0.25 2.875 0.25 2.875 0 0 Z " fill="#D5D5D5" transform="translate(69,213)"/>
<path d="M0 0 C0 2.97 0 5.94 0 9 C-0.99 8.67 -1.98 8.34 -3 8 C-3 7.34 -3 6.68 -3 6 C-8.79735449 4.04033088 -13.85440484 2.48786707 -20 3 C-20.99 3.495 -20.99 3.495 -22 4 C-22 3.34 -22 2.68 -22 2 C-23.65 2 -25.3 2 -27 2 C-27 1.34 -27 0.68 -27 0 C-24.0003508 -0.19654959 -21.00064899 -0.38246106 -18 -0.5625 C-17.16082031 -0.61857422 -16.32164062 -0.67464844 -15.45703125 -0.73242188 C-10.14062774 -1.0415151 -5.26352696 -0.82242609 0 0 Z " fill="#979797" transform="translate(199,218)"/>
<path d="M0 0 C0.99 0 1.98 0 3 0 C2.67402832 0.56393967 2.34805664 1.12787933 2.01220703 1.70890808 C0.88821612 4.25301854 0.76869539 5.89128649 0.8046875 8.6574707 C0.81129395 9.57555008 0.81790039 10.49362946 0.82470703 11.43952942 C0.84130371 12.42499252 0.85790039 13.41045563 0.875 14.42578125 C0.88257324 15.44673386 0.89014648 16.46768646 0.89794922 17.51957703 C0.93060664 21.88361248 0.98675462 26.24727217 1.04101562 30.61108398 C1.07728601 33.79929864 1.10141585 36.9874515 1.125 40.17578125 C1.14159668 41.15517166 1.15819336 42.13456207 1.17529297 43.14363098 C1.21350059 48.50792868 0.84735402 52.9450065 -1 58 C-2 59 -2 59 -4.1875 59.25 C-7.64973106 58.94224613 -9.98809202 57.68106492 -13 56 C-13 55.01 -13 54.02 -13 53 C-12.34 53 -11.68 53 -11 53 C-11 53.66 -11 54.32 -11 55 C-8.03 55 -5.06 55 -2 55 C-1.9845388 53.98855675 -1.9845388 53.98855675 -1.96876526 52.9566803 C-1.86094231 45.96556418 -1.74632557 38.97458333 -1.62768555 31.98364258 C-1.58425876 29.37136656 -1.54258962 26.75906072 -1.50268555 24.14672852 C-1.44516993 20.40111281 -1.38142236 16.65564831 -1.31640625 12.91015625 C-1.29969376 11.73413345 -1.28298126 10.55811066 -1.26576233 9.34645081 C-1.24581711 8.26540573 -1.22587189 7.18436066 -1.20532227 6.07055664 C-1.18977798 5.11347305 -1.1742337 4.15638947 -1.15821838 3.17030334 C-1 1 -1 1 0 0 Z " fill="#EBEBEB" transform="translate(400,221)"/>
<path d="M0 0 C3.48231056 1.16077019 4.19511573 1.87575588 6 5 C6.3984375 7.875 6.3984375 7.875 6.375 11 C6.38273437 12.03125 6.39046875 13.0625 6.3984375 14.125 C5.9486257 17.37070085 5.39887145 18.77588078 3 21 C0.73828125 21.390625 0.73828125 21.390625 -1.6875 21.25 C-2.49574219 21.21390625 -3.30398438 21.1778125 -4.13671875 21.140625 C-5.05904297 21.07101562 -5.05904297 21.07101562 -6 21 C-5.401875 20.566875 -4.80375 20.13375 -4.1875 19.6875 C-1.37962924 17.55652375 -1.37962924 17.55652375 1 15 C1.40084408 12.39507746 1.40084408 12.39507746 1.25 9.5625 C1.23453125 8.61503906 1.2190625 7.66757812 1.203125 6.69140625 C1.02481686 4.32882345 0.66441184 2.26650167 0 0 Z " fill="#7F7F7F" transform="translate(370,283)"/>
<path d="M0 0 C2.49005677 2.49005677 2.29703766 3.37470732 2.3125 6.8125 C2.22726136 11.03790136 1.74482298 13.64521636 -1 17 C-1.391875 17.598125 -1.78375 18.19625 -2.1875 18.8125 C-5.25026436 20.81913872 -8.41267887 20.17642563 -12 20 C-12 19.34 -12 18.68 -12 18 C-12.804375 17.7525 -13.60875 17.505 -14.4375 17.25 C-17 16 -17 16 -17.8125 13.875 C-17.874375 13.25625 -17.93625 12.6375 -18 12 C-16 13 -14 14 -12 15 C-9.85753682 15.23502905 -9.85753682 15.23502905 -7.5 15.25 C-6.7059375 15.27578125 -5.911875 15.3015625 -5.09375 15.328125 C-4.4028125 15.21984375 -3.711875 15.1115625 -3 15 C-0.73045369 11.59568053 -0.63450051 9.83475798 -0.375 5.8125 C-0.30023438 4.72582031 -0.22546875 3.63914062 -0.1484375 2.51953125 C-0.09945313 1.68808594 -0.05046875 0.85664063 0 0 Z " fill="#DFDFDF" transform="translate(376,288)"/>
<path d="M0 0 C0.66 0 1.32 0 2 0 C2.625 2.375 2.625 2.375 3 5 C1 7 1 7 -2.125 7.125 C-3.07375 7.08375 -4.0225 7.0425 -5 7 C-5.01030746 7.71187973 -5.02061493 8.42375946 -5.03123474 9.1572113 C-5.12904898 15.85282826 -5.23154004 22.54835518 -5.33933926 29.24381924 C-5.3945988 32.6863574 -5.44802347 36.128904 -5.49731445 39.5715332 C-5.55400801 43.52564526 -5.61857495 47.47960944 -5.68359375 51.43359375 C-5.70030624 52.67523788 -5.71701874 53.91688202 -5.73423767 55.19615173 C-5.75418289 56.33725906 -5.77412811 57.47836639 -5.79467773 58.65405273 C-5.81022202 59.664431 -5.8257663 60.67480927 -5.84178162 61.71580505 C-6 64 -6 64 -7 65 C-8.66617115 65.04063832 -10.33388095 65.042721 -12 65 C-12 64.34 -12 63.68 -12 63 C-10.35 63 -8.7 63 -7 63 C-7 44.52 -7 26.04 -7 7 C-4.69 6.34 -2.38 5.68 0 5 C0 3.35 0 1.7 0 0 Z " fill="#BBBBBB" transform="translate(221,213)"/>
<path d="M0 0 C-0.58809834 3.98042168 -1.82031677 6.86247219 -3.875 10.3125 C-4.38804687 11.19550781 -4.90109375 12.07851562 -5.4296875 12.98828125 C-5.94789063 13.65214844 -6.46609375 14.31601563 -7 15 C-7.99 15 -8.98 15 -10 15 C-10 11.37 -10 7.74 -10 4 C-3.375 0 -3.375 0 0 0 Z " fill="#ABABAB" transform="translate(195,229)"/>
<path d="M0 0 C0 2.97 0 5.94 0 9 C-0.52722656 8.57847656 -1.05445313 8.15695313 -1.59765625 7.72265625 C-11.43423668 1.09738417 -22.52893937 1.9797561 -34 2 C-34 1.67 -34 1.34 -34 1 C-22.64753762 0.13387208 -11.38380184 -0.11858127 0 0 Z " fill="#9E9E9F" transform="translate(277,217)"/>
<path d="M0 0 C3.7990944 2.45102864 3.7990944 2.45102864 4.61328125 4.67578125 C5.12970715 7.77955307 5.20970909 10.79145128 5.25 13.9375 C5.27578125 15.14277344 5.3015625 16.34804687 5.328125 17.58984375 C4.97475913 21.2623247 4.31267899 23.14537071 2 26 C-1.1875 26.3125 -1.1875 26.3125 -4 26 C-4 26.66 -4 27.32 -4 28 C-6.64 28 -9.28 28 -12 28 C-11.484375 27.7525 -10.96875 27.505 -10.4375 27.25 C-7.42705232 25.70729062 -7.42705232 25.70729062 -4.4375 24.125 C-3.85871094 23.81820312 -3.27992188 23.51140625 -2.68359375 23.1953125 C-0.48991092 21.63784859 0.66591818 20.35661161 2 18 C2.43793483 14.63186251 2.43793483 14.63186251 2.3125 11 C2.30863281 9.783125 2.30476563 8.56625 2.30078125 7.3125 C2.02418833 4.26638572 1.6023478 2.55354231 0 0 Z " fill="#4B4B4B" transform="translate(320,232)"/>
<path d="M0 0 C1.65 0.33 3.3 0.66 5 1 C5 1.66 5 2.32 5 3 C9.62 2.67 14.24 2.34 19 2 C13.57877799 4.71061101 9.03937576 4.60612767 3 5 C2.67 9.29 2.34 13.58 2 18 C0.35 17.67 -1.3 17.34 -3 17 C-3.66 16.01 -4.32 15.02 -5 14 C-2.525 14.99 -2.525 14.99 0 16 C0 10.72 0 5.44 0 0 Z " fill="#606060" transform="translate(289,258)"/>
<path d="M0 0 C0.125 2.875 0.125 2.875 0 6 C-0.66 6.66 -1.32 7.32 -2 8 C-1.67 6.02 -1.34 4.04 -1 2 C-2.11375 2.66 -3.2275 3.32 -4.375 4 C-7.75 6 -7.75 6 -10 6 C-10.2475 6.53625 -10.495 7.0725 -10.75 7.625 C-12.29696975 10.56424252 -14.13014369 13.25754408 -16 16 C-15.34 16.33 -14.68 16.66 -14 17 C-15.65 17 -17.3 17 -19 17 C-18.46175151 12.42488786 -16.89814327 9.56694556 -14 6 C-9.69439359 2.76211453 -5.52287665 0 0 0 Z " fill="#C5C5C5" transform="translate(312,234)"/>
<path d="M0 0 C0.66 0 1.32 0 2 0 C2.625 2.375 2.625 2.375 3 5 C2.34 5.66 1.68 6.32 1 7 C-0.98 7 -2.96 7 -5 7 C-5.33 21.19 -5.66 35.38 -6 50 C-6.33 50 -6.66 50 -7 50 C-7 35.15 -7 20.3 -7 5 C-4.69 4.34 -2.38 3.68 0 3 C0 2.01 0 1.02 0 0 Z " fill="#EEEEEE" transform="translate(223,215)"/>
<path d="M0 0 C-0.33 0.99 -0.66 1.98 -1 3 C-2.85625 3.1546875 -2.85625 3.1546875 -4.75 3.3125 C-8.33021377 3.61085115 -10.42286636 4.43985845 -13 7 C-13.66000868 9.35954555 -13.66000868 9.35954555 -13.6875 11.9375 C-13.85449754 15.10091064 -14.12898171 17.94789527 -15 21 C-17.17046773 16.65906455 -17.60838942 12.76088867 -17 8 C-15.61265239 4.53163098 -14.41002674 3.27652966 -11.3125 1.1875 C-7.23655856 -0.27368655 -4.30418692 -0.22263036 0 0 Z " fill="#616161" transform="translate(360,237)"/>
<path d="M0 0 C9.9 0 19.8 0 30 0 C29.67 0.99 29.34 1.98 29 3 C27.68 3 26.36 3 25 3 C24.67 2.67 24.34 2.34 24 2 C24 2.33 24 2.66 24 3 C16.08 3 8.16 3 0 3 C0 2.01 0 1.02 0 0 Z " fill="#010101" transform="translate(168,212)"/>
<path d="M0 0 C1.32 0.66 2.64 1.32 4 2 C4.05399736 3.45792884 4.09279177 4.91642712 4.125 6.375 C4.14820313 7.18710937 4.17140625 7.99921875 4.1953125 8.8359375 C4 11 4 11 2 13 C-0.1640625 12.9765625 -0.1640625 12.9765625 -2.625 12.625 C-3.85089844 12.45871094 -3.85089844 12.45871094 -5.1015625 12.2890625 C-6.04128906 12.14597656 -6.04128906 12.14597656 -7 12 C-7.33 10.68 -7.66 9.36 -8 8 C-7.030625 8.185625 -6.06125 8.37125 -5.0625 8.5625 C-4.051875 8.706875 -3.04125 8.85125 -2 9 C-0.50256881 7.50256881 -0.66797307 6.01175761 -0.4375 3.9375 C-0.293125 2.638125 -0.14875 1.33875 0 0 Z " fill="#A4A4A4" transform="translate(238,250)"/>
<path d="M0 0 C1.02075623 0.02009628 2.04151245 0.04019257 3.09320068 0.06089783 C4.18811829 0.08793289 5.28303589 0.11496796 6.41113281 0.14282227 C7.53747131 0.16643326 8.66380981 0.19004425 9.82427979 0.21437073 C13.42106974 0.29093167 17.0176403 0.37498904 20.61425781 0.45922852 C23.05304917 0.51245675 25.49185122 0.5651971 27.93066406 0.61743164 C33.90866434 0.74653665 39.88650171 0.88179655 45.86425781 1.02172852 C46.35925781 2.01172852 46.35925781 2.01172852 46.86425781 3.02172852 C30.03425781 3.02172852 13.20425781 3.02172852 -4.13574219 3.02172852 C-4.46574219 3.68172852 -4.79574219 4.34172852 -5.13574219 5.02172852 C-5.79574219 5.02172852 -6.45574219 5.02172852 -7.13574219 5.02172852 C-7.79574219 3.70172852 -8.45574219 2.38172852 -9.13574219 1.02172852 C-6.00103618 0.09076903 -3.26295002 -0.07268948 0 0 Z " fill="#E1E1E1" transform="translate(316.1357421875,218.978271484375)"/>
<path d="M0 0 C0.66 0 1.32 0 2 0 C2.05406122 1.93719378 2.09282025 3.87481921 2.125 5.8125 C2.14820312 6.89144531 2.17140625 7.97039062 2.1953125 9.08203125 C2 12 2 12 0 15 C-4.7775907 17.16129103 -8.85564972 17.34295669 -14 17 C-14.66 16.34 -15.32 15.68 -16 15 C-14.14375 15.0309375 -14.14375 15.0309375 -12.25 15.0625 C-7.99413691 15.17445201 -7.99413691 15.17445201 -4 14 C-2.76709799 11.54295238 -2.76709799 11.54295238 -2 9 C-1.67 8.67 -1.34 8.34 -1 8 C-0.76924918 6.65252916 -0.58846937 5.29622435 -0.4375 3.9375 C-0.293125 2.638125 -0.14875 1.33875 0 0 Z " fill="#6C6C6C" transform="translate(104,242)"/>
<path d="M0 0 C0.03867187 1.03060547 0.03867187 1.03060547 0.078125 2.08203125 C0.13484375 2.98308594 0.1915625 3.88414062 0.25 4.8125 C0.29640625 5.70582031 0.3428125 6.59914063 0.390625 7.51953125 C0.79121416 10.16053515 0.79121416 10.16053515 3.046875 11.82421875 C3.69140625 12.21222656 4.3359375 12.60023438 5 13 C4.67 13.66 4.34 14.32 4 15 C1.5 13.4375 1.5 13.4375 -1 11 C-1.3125 7.25 -1.3125 7.25 -1 4 C-1.62648438 4.01160156 -2.25296875 4.02320313 -2.8984375 4.03515625 C-3.71570313 4.04417969 -4.53296875 4.05320312 -5.375 4.0625 C-6.18710937 4.07410156 -6.99921875 4.08570313 -7.8359375 4.09765625 C-10 4 -10 4 -12 3 C-12 2.01 -12 1.02 -12 0 C-11.05125 0.020625 -10.1025 0.04125 -9.125 0.0625 C-0.375 -0.1125 -0.375 -0.1125 0 0 Z " fill="#575757" transform="translate(278,257)"/>
<path d="M0 0 C-0.33 0.66 -0.66 1.32 -1 2 C-2.27875 2.12375 -3.5575 2.2475 -4.875 2.375 C-7.66720951 2.68024154 -8.74292999 2.79916406 -11 4.5625 C-12.45035698 8.09774514 -12.64424586 11.28216451 -12 15 C-11.06353857 17.22409589 -10.00559371 19.25990559 -8.77734375 21.3359375 C-8.52082031 21.88507813 -8.26429688 22.43421875 -8 23 C-8.33 23.66 -8.66 24.32 -9 25 C-13.64648646 19.51952879 -15.22079265 15.22482602 -15 8 C-14.2392143 4.7493702 -13.54366823 3.50742368 -11.125 1.25 C-7.08941085 -1.12387597 -4.52708727 -1.13177182 0 0 Z " fill="#A2A2A2" transform="translate(360,240)"/>
<path d="M0 0 C8.91 0 17.82 0 27 0 C27 0.33 27 0.66 27 1 C23.7 1 20.4 1 17 1 C17 1.66 17 2.32 17 3 C11.06 3 5.12 3 -1 3 C-0.67 2.01 -0.34 1.02 0 0 Z " fill="#020202" transform="translate(127,212)"/>
<path d="M0 0 C0.33 1.32 0.66 2.64 1 4 C-0.7015625 4.2165625 -0.7015625 4.2165625 -2.4375 4.4375 C-5.80777201 4.61171478 -5.80777201 4.61171478 -7 6 C-7.16003488 8.66426685 -7.25942889 11.30560428 -7.31640625 13.97265625 C-7.33718735 14.77029892 -7.35796844 15.56794159 -7.37937927 16.38975525 C-7.44496158 18.94724611 -7.50379967 21.5048428 -7.5625 24.0625 C-7.60567699 25.79232882 -7.64929101 27.52214679 -7.69335938 29.25195312 C-7.80065172 33.5011926 -7.90189426 37.7505389 -8 42 C-8.33 42 -8.66 42 -9 42 C-9.02470935 36.78556667 -9.04286444 31.57116739 -9.05493164 26.35668945 C-9.059962 24.58259487 -9.06678699 22.80850444 -9.07543945 21.03442383 C-9.08756174 18.48517839 -9.09324126 15.93598774 -9.09765625 13.38671875 C-9.10281754 12.59287277 -9.10797882 11.79902679 -9.11329651 10.98112488 C-9.11362877 7.72343714 -9.03772826 5.11318479 -8 2 C-5.36 2 -2.72 2 0 2 C0 1.34 0 0.68 0 0 Z " fill="#929292" transform="translate(426,214)"/>
<path d="M0 0 C1.98 0 3.96 0 6 0 C6.33 1.65 6.66 3.3 7 5 C9.97 5.495 9.97 5.495 13 6 C13 6.33 13 6.66 13 7 C21.25 7.33 29.5 7.66 38 8 C38 8.33 38 8.66 38 9 C34.03538763 9.19978665 30.07277266 9.34383755 26.10424805 9.43945312 C24.10165339 9.49883893 22.10045772 9.60056796 20.09960938 9.703125 C13.22571148 9.84164183 8.86131697 9.68659 3.55859375 5.03125 C0 1.33533003 0 1.33533003 0 0 Z " fill="#EBEBEB" transform="translate(154,202)"/>
<path d="M0 0 C2 1.375 2 1.375 4 3 C4 3.66 4 4.32 4 5 C4.99 5.33 5.98 5.66 7 6 C7 6.66 7 7.32 7 8 C7.66 8.33 8.32 8.66 9 9 C8.67 9.66 8.34 10.32 8 11 C8.804375 11.20625 9.60875 11.4125 10.4375 11.625 C11.283125 12.07875 12.12875 12.5325 13 13 C13.8125 16.125 13.8125 16.125 14 19 C10.09628463 17.69876154 9.1829398 15.88284282 6.8125 12.5625 C6.09707031 11.57378906 5.38164062 10.58507812 4.64453125 9.56640625 C3 7 3 7 3 5 C1.68 4.34 0.36 3.68 -1 3 C-0.67 2.01 -0.34 1.02 0 0 Z " fill="#DFDFDF" transform="translate(356,264)"/>
<path d="M0 0 C0.66 0.33 1.32 0.66 2 1 C-2.59161971 6.13181027 -6.50727989 7.9088397 -13.3046875 8.4140625 C-14.82771076 8.49283956 -16.35120096 8.56301495 -17.875 8.625 C-19.050625 8.68300781 -19.050625 8.68300781 -20.25 8.7421875 C-22.16631367 8.83566622 -24.08312319 8.91888495 -26 9 C-26 8.67 -26 8.34 -26 8 C-24.02 8 -22.04 8 -20 8 C-20 7.34 -20 6.68 -20 6 C-19.2265625 5.90203125 -18.453125 5.8040625 -17.65625 5.703125 C-10.93410012 4.73806388 -5.95672186 3.19898026 0 0 Z " fill="#E6E6E6" transform="translate(324,258)"/>
<path d="M0 0 C7.92 0 15.84 0 24 0 C24 0.66 24 1.32 24 2 C23.03175293 2.03758423 23.03175293 2.03758423 22.04394531 2.07592773 C19.11244106 2.19214433 16.18123783 2.31475442 13.25 2.4375 C12.23421875 2.47681641 11.2184375 2.51613281 10.171875 2.55664062 C9.1921875 2.59853516 8.2125 2.64042969 7.203125 2.68359375 C6.30239258 2.72025146 5.40166016 2.75690918 4.47363281 2.79467773 C2.20403661 2.98306407 0.18437113 3.37366501 -2 4 C-1.34 2.68 -0.68 1.36 0 0 Z " fill="#989898" transform="translate(130,217)"/>
<path d="M0 0 C-0.33 1.32 -0.66 2.64 -1 4 C-1.66 4 -2.32 4 -3 4 C-3.103125 4.598125 -3.20625 5.19625 -3.3125 5.8125 C-4 8 -4 8 -5.5 9.4375 C-7.46573078 11.48513623 -7.62668561 13.23747349 -8 16 C-8.66 15.67 -9.32 15.34 -10 15 C-10.50130606 9.73628638 -9.31168629 7.0909066 -6 3 C-5.34 3 -4.68 3 -4 3 C-4 2.34 -4 1.68 -4 1 C-2 0 -2 0 0 0 Z " fill="#797979" transform="translate(382,237)"/>
<path d="M0 0 C0.33 1.65 0.66 3.3 1 5 C-1.64 5.33 -4.28 5.66 -7 6 C-7.99 4.35 -8.98 2.7 -10 1 C-6.78548731 -0.60725635 -3.56387464 -0.05748185 0 0 Z " fill="#D1D1D3" transform="translate(381,219)"/>
<path d="M0 0 C0.33 0 0.66 0 1 0 C1.05389087 1.95803507 1.09274217 3.91648909 1.125 5.875 C1.14820313 6.96554687 1.17140625 8.05609375 1.1953125 9.1796875 C1 12 1 12 -1 14 C-5.67879601 13.73516249 -9.38593615 13.08258387 -13 10 C-13.8125 6.8125 -13.8125 6.8125 -14 4 C-10.42895561 5.87949705 -8.45255699 7.17053157 -7 11 C-5.02 11 -3.04 11 -1 11 C-0.67 7.37 -0.34 3.74 0 0 Z " fill="#E2E2E2" transform="translate(294,266)"/>
<path d="M0 0 C0.66 0.33 1.32 0.66 2 1 C1.34 1.66 0.68 2.32 0 3 C-0.90242136 5.25167102 -0.90242136 5.25167102 -1.625 7.8125 C-2.01558594 9.09060547 -2.01558594 9.09060547 -2.4140625 10.39453125 C-3.0044509 13.01979166 -3.10588413 15.31920637 -3 18 C-3.99 18 -4.98 18 -6 18 C-6.05410687 16.22950311 -6.09284119 14.45853151 -6.125 12.6875 C-6.14820313 11.70136719 -6.17140625 10.71523437 -6.1953125 9.69921875 C-6 7 -6 7 -4 4 C-3.34 4 -2.68 4 -2 4 C-1.34 2.68 -0.68 1.36 0 0 Z " fill="#5F5F5F" transform="translate(266,230)"/>
<path d="M0 0 C0.33 0 0.66 0 1 0 C1 6.6 1 13.2 1 20 C-1.31 20 -3.62 20 -6 20 C-6 19.34 -6 18.68 -6 18 C-7.65 18 -9.3 18 -11 18 C-11.66 15.69 -12.32 13.38 -13 11 C-11.66102417 11.95043374 -10.32894573 12.91059147 -9 13.875 C-8.2575 14.40867187 -7.515 14.94234375 -6.75 15.4921875 C-6.1725 15.98976563 -5.595 16.48734375 -5 17 C-5 17.66 -5 18.32 -5 19 C-3.35 19 -1.7 19 0 19 C0 12.73 0 6.46 0 0 Z " fill="#989898" transform="translate(417,256)"/>
<path d="M0 0 C0.33 1.32 0.66 2.64 1 4 C0.35546875 4.37769531 -0.2890625 4.75539062 -0.953125 5.14453125 C-3.24029762 6.86059908 -3.24029762 6.86059908 -3.609375 9.69921875 C-3.65578125 10.68535156 -3.7021875 11.67148438 -3.75 12.6875 C-3.80671875 13.68136719 -3.8634375 14.67523438 -3.921875 15.69921875 C-3.94765625 16.45847656 -3.9734375 17.21773438 -4 18 C-5.65 17.67 -7.3 17.34 -9 17 C-8.67 16.34 -8.34 15.68 -8 15 C-7.01 15.33 -6.02 15.66 -5 16 C-5.66 15.01 -6.32 14.02 -7 13 C-7.375 10.5625 -7.375 10.5625 -7 8 C-5.0625 5.875 -5.0625 5.875 -3 4 C-2.67 3.01 -2.34 2.02 -2 1 C-1.34 0.67 -0.68 0.34 0 0 Z " fill="#B8B8B8" transform="translate(381,240)"/>
<path d="M0 0 C5.66129431 4.69766975 10.85228904 9.74723372 16 15 C15.67 15.66 15.34 16.32 15 17 C9.90356914 14.45178457 7.94987976 13.43180791 6 8 C5.154375 7.505 4.30875 7.01 3.4375 6.5 C1 5 1 5 0.1875 2.3125 C0.0946875 1.1678125 0.0946875 1.1678125 0 0 Z " fill="#BBBBBB" transform="translate(342,259)"/>
<path d="M0 0 C3.37082558 1.44463953 5.58037292 3.24663125 8 6 C8.33 6.99 8.66 7.98 9 9 C8.34 9 7.68 9 7 9 C7.33 10.65 7.66 12.3 8 14 C6 13 6 13 5.1875 10.75 C3.73169188 7.37865489 1.67938535 5.46785493 -1 3 C-0.67 2.01 -0.34 1.02 0 0 Z " fill="#454545" transform="translate(352,265)"/>
<path d="M0 0 C0 0.66 0 1.32 0 2 C-0.99 2.66 -1.98 3.32 -3 4 C-3.73343428 7.06556598 -3.73343428 7.06556598 -4 10 C-3.34 10 -2.68 10 -2 10 C-2 11.98 -2 13.96 -2 16 C-3.98 16.99 -3.98 16.99 -6 18 C-6 17.34 -6 16.68 -6 16 C-6.99 16 -7.98 16 -9 16 C-9 15.34 -9 14.68 -9 14 C-7.68 14 -6.36 14 -5 14 C-5.05220703 12.86111328 -5.05220703 12.86111328 -5.10546875 11.69921875 C-5.13253906 10.70535156 -5.15960938 9.71148437 -5.1875 8.6875 C-5.23970703 7.20830078 -5.23970703 7.20830078 -5.29296875 5.69921875 C-5 3 -5 3 -3.61328125 1.14453125 C-2 0 -2 0 0 0 Z " fill="#E4E4E4" transform="translate(382,244)"/>
<path d="M0 0 C3.63 0 7.26 0 11 0 C11 2.64 11 5.28 11 8 C10.01 7.67 9.02 7.34 8 7 C8 6.34 8 5.68 8 5 C6.68 4.67 5.36 4.34 4 4 C4 3.34 4 2.68 4 2 C2.68 1.34 1.36 0.68 0 0 Z " fill="#C6C6C6" transform="translate(188,219)"/>
<path d="M0 0 C0.53012695 0.64743164 1.06025391 1.29486328 1.60644531 1.96191406 C4.65979673 4.56180979 6.32679085 4.53446775 10.296875 4.609375 C11.50214844 4.64160156 12.70742187 4.67382812 13.94921875 4.70703125 C15.20347656 4.72121094 16.45773438 4.73539063 17.75 4.75 C19.01972656 4.77964844 20.28945312 4.80929688 21.59765625 4.83984375 C24.73183485 4.91053951 27.86526956 4.96324012 31 5 C30.67 3.35 30.34 1.7 30 0 C30.66 0.33 31.32 0.66 32 1 C32 2.65 32 4.3 32 6 C22.1 6 12.2 6 2 6 C1.34 4.02 0.68 2.04 0 0 Z " fill="#565656" transform="translate(124,206)"/>
<path d="M0 0 C0 4.02046842 -1.26140024 5.11726341 -4 8 C-7.25 9.8125 -7.25 9.8125 -10 11 C-10 12.65 -10 14.3 -10 16 C-11.32 15.34 -12.64 14.68 -14 14 C-14 12.68 -14 11.36 -14 10 C-13.34 10 -12.68 10 -12 10 C-12 9.34 -12 8.68 -12 8 C-10.14375 7.4121875 -10.14375 7.4121875 -8.25 6.8125 C-4.29461634 5.35377695 -2.32850657 3.58978096 0 0 Z " fill="#C0C0C0" transform="translate(168,234)"/>
<path d="M0 0 C0.66 0 1.32 0 2 0 C1.25 6.625 1.25 6.625 -1 10 C-1.66 10 -2.32 10 -3 10 C-3 10.66 -3 11.32 -3 12 C-3.66 12 -4.32 12 -5 12 C-4.49287967 8.28111761 -3.88391785 5.26545761 -2 2 C-1.34 2 -0.68 2 0 2 C0 1.34 0 0.68 0 0 Z " fill="#5A5A5A" transform="translate(91,236)"/>
<path d="M0 0 C4.44607497 1.77842999 5.9797308 2.64414533 9 6 C8.01 6.66 7.02 7.32 6 8 C4.68 7.01 3.36 6.02 2 5 C2 6.98 2 8.96 2 11 C1.34 11 0.68 11 0 11 C0 7.37 0 3.74 0 0 Z " fill="#0F0F0F" transform="translate(382,200)"/>
<path d="M0 0 C0.33 0.99 0.66 1.98 1 3 C0.29875 3.268125 -0.4025 3.53625 -1.125 3.8125 C-4.03355635 4.94119192 -4.03355635 4.94119192 -6.71875 6.5625 C-10.53938549 8.23630221 -13.22632411 8.30491536 -17.375 8.1875 C-18.62023437 8.16042969 -19.86546875 8.13335937 -21.1484375 8.10546875 C-22.08945313 8.07066406 -23.03046875 8.03585937 -24 8 C-24 7.67 -24 7.34 -24 7 C-21.93827387 6.66191314 -19.8755797 6.32972639 -17.8125 6 C-16.66394531 5.814375 -15.51539063 5.62875 -14.33203125 5.4375 C-11.49584607 5.06510523 -8.85280436 4.91403979 -6 5 C-6 4.34 -6 3.68 -6 3 C-4.02 2.01 -2.04 1.02 0 0 Z " fill="#585858" transform="translate(198,254)"/>
<path d="M0 0 C1 3 1 3 -0.0625 5.6875 C-2 8 -2 8 -5.1875 8.3125 C-6.115625 8.209375 -7.04375 8.10625 -8 8 C-8 8.66 -8 9.32 -8 10 C-10.64 10 -13.28 10 -16 10 C-12.71795793 8.22222721 -9.3379754 7.04555792 -5.8046875 5.87890625 C-3.64531662 5.0152524 -3.64531662 5.0152524 -2 2 C-1.34 2 -0.68 2 0 2 C0 1.34 0 0.68 0 0 Z " fill="#787878" transform="translate(324,250)"/>
<path d="M0 0 C0.89203125 0.00902344 1.7840625 0.01804688 2.703125 0.02734375 C3.37859375 0.03894531 4.0540625 0.05054688 4.75 0.0625 C3.76 0.3925 2.77 0.7225 1.75 1.0625 C2.41 2.3825 3.07 3.7025 3.75 5.0625 C2.76 4.7325 1.77 4.4025 0.75 4.0625 C-1.47574335 3.83798542 -3.70581519 3.65467122 -5.9375 3.5 C-7.11699219 3.41621094 -8.29648437 3.33242187 -9.51171875 3.24609375 C-10.41535156 3.18550781 -11.31898438 3.12492188 -12.25 3.0625 C-8.04248553 0.25749035 -5.00014586 -0.06579139 0 0 Z " fill="#B4B3B4" transform="translate(305.25,217.9375)"/>
<path d="M0 0 C1.32 0 2.64 0 4 0 C4 0.99 4 1.98 4 3 C-3.15533979 5.60758587 -9.40237976 6.38999191 -17 6 C-17 5.67 -17 5.34 -17 5 C-16.34773437 4.96261719 -15.69546875 4.92523438 -15.0234375 4.88671875 C-6.83719483 4.29517757 -6.83719483 4.29517757 0 0 Z " fill="#8B8B8B" transform="translate(195,257)"/>
<path d="M0 0 C1 2 1 2 0.875 5 C0.936875 6.485 0.936875 6.485 1 8 C1.99 8.66 2.98 9.32 4 10 C4 10.66 4 11.32 4 12 C-0.37859255 11.49477778 -2.81651224 8.82172778 -6 6 C-4 4 -2 2 0 0 Z " fill="#2A2A2A" transform="translate(372,244)"/>
<path d="M0 0 C1.4540625 0.0309375 1.4540625 0.0309375 2.9375 0.0625 C2.9375 1.7125 2.9375 3.3625 2.9375 5.0625 C2.6075 4.0725 2.2775 3.0825 1.9375 2.0625 C0.52030758 2.68630692 -0.8962306 3.3116003 -2.3125 3.9375 C-3.10140625 4.28554687 -3.8903125 4.63359375 -4.703125 4.9921875 C-6.85118608 5.96663905 -8.96079202 6.99236429 -11.0625 8.0625 C-10.7325 6.4125 -10.4025 4.7625 -10.0625 3.0625 C-8.6084375 2.5984375 -8.6084375 2.5984375 -7.125 2.125 C-1.0625 0.02168367 -1.0625 0.02168367 0 0 Z " fill="#919191" transform="translate(310.0625,231.9375)"/>
<path d="M0 0 C-0.33 1.65 -0.66 3.3 -1 5 C-1.33 4.34 -1.66 3.68 -2 3 C-2.99 3.66 -3.98 4.32 -5 5 C-6.32 5 -7.64 5 -9 5 C-9 7.97 -9 10.94 -9 14 C-8.34 14.33 -7.68 14.66 -7 15 C-7.99 15 -8.98 15 -10 15 C-10 11.37 -10 7.74 -10 4 C-3.375 0 -3.375 0 0 0 Z " fill="#535353" transform="translate(195,229)"/>
<path d="M0 0 C9.24 0 18.48 0 28 0 C28 1.65 28 3.3 28 5 C27.67 3.68 27.34 2.36 27 1 C23.06191772 1.1097257 19.12480411 1.24039131 15.1875 1.375 C14.06794922 1.4059375 12.94839844 1.436875 11.79492188 1.46875 C10.18520508 1.52675781 10.18520508 1.52675781 8.54296875 1.5859375 C7.0583313 1.63306885 7.0583313 1.63306885 5.54370117 1.68115234 C2.75924906 1.83773433 2.75924906 1.83773433 0 4 C0 2.68 0 1.36 0 0 Z " fill="#767676" transform="translate(127,216)"/>
<path d="M0 0 C3.80635497 3.20760251 7.54563567 6.40746109 11 10 C4.63010502 9.39906651 4.63010502 9.39906651 2.125 7.8125 C0.56567295 5.30025086 0.32316562 2.90849054 0 0 Z " fill="#CDCDCD" transform="translate(361,245)"/>
<path d="M0 0 C1.46184058 0.22860058 2.91955419 0.48370392 4.375 0.75 C5.59316406 0.95882812 5.59316406 0.95882812 6.8359375 1.171875 C9 2 9 2 11 6 C7.7 6 4.4 6 1 6 C1.33 5.01 1.66 4.02 2 3 C1.34 2.67 0.68 2.34 0 2 C0 1.34 0 0.68 0 0 Z " fill="#232323" transform="translate(415,210)"/>
<path d="M0 0 C1.32 0.66 2.64 1.32 4 2 C4 2.99 4 3.98 4 5 C4.99 5.33 5.98 5.66 7 6 C7 7.32 7 8.64 7 10 C3.5647952 12.29013653 2.014669 12.17842973 -2 12 C-2 11.67 -2 11.34 -2 11 C-0.35 10.67 1.3 10.34 3 10 C2.50168276 6.31245243 1.89932357 4.39509338 -1 2 C-0.67 1.34 -0.34 0.68 0 0 Z " fill="#ECECEC" transform="translate(425,210)"/>
<path d="M0 0 C2.65412165 0.46837441 5.04586728 1.01789943 7.5625 2 C12.63023377 3.47424982 17.74885569 3.6771141 23 4 C23 4.33 23 4.66 23 5 C6.10526316 5 6.10526316 5 2 3 C1.34 2.01 0.68 1.02 0 0 Z " fill="#373737" transform="translate(151,248)"/>
<path d="M0 0 C3.44428265 1.44781793 5.36130962 3.27694609 7.75 6.125 C8.36359375 6.84945312 8.9771875 7.57390625 9.609375 8.3203125 C10.29773438 9.15175781 10.29773438 9.15175781 11 10 C10.34 10.66 9.68 11.32 9 12 C8.67 11.34 8.34 10.68 8 10 C7.01 10 6.02 10 5 10 C5 9.34 5 8.68 5 8 C4.01 7.67 3.02 7.34 2 7 C2.33 6.01 2.66 5.02 3 4 C2.34 4 1.68 4 1 4 C0.67 2.68 0.34 1.36 0 0 Z " fill="#C4C4C4" transform="translate(142,240)"/>
<path d="M0 0 C5.15171623 -0.09038099 9.91913204 0.15318867 15 1 C14.67 1.99 14.34 2.98 14 4 C10.7 3.34 7.4 2.68 4 2 C3.67 2.99 3.34 3.98 3 5 C1.5 3.625 1.5 3.625 0 2 C0 1.34 0 0.68 0 0 Z " fill="#646464" transform="translate(99,234)"/>
<path d="M0 0 C1.98 0 3.96 0 6 0 C6 0.66 6 1.32 6 2 C6.99 2.66 7.98 3.32 9 4 C8.67 4.33 8.34 4.66 8 5 C9.32 5.66 10.64 6.32 12 7 C12 7.99 12 8.98 12 10 C10.68 10 9.36 10 8 10 C6.5625 7.8125 6.5625 7.8125 5 5 C3.37163262 3.2958946 1.71230248 1.61974559 0 0 Z " fill="#C3C3C3" transform="translate(386,201)"/>
<path d="M0 0 C0.55171875 0.30679687 1.1034375 0.61359375 1.671875 0.9296875 C4.20540121 2.09442941 6.51171762 2.62057956 9.25 3.125 C10.14203125 3.29257812 11.0340625 3.46015625 11.953125 3.6328125 C12.96632813 3.81457031 12.96632813 3.81457031 14 4 C13.67 4.66 13.34 5.32 13 6 C4.91111111 6.46666667 4.91111111 6.46666667 1.4375 4.6875 C0 3 0 3 0 0 Z " fill="#BABABB" transform="translate(358,300)"/>
<path d="M0 0 C0 0.66 0 1.32 0 2 C-1.2684375 2.4021875 -1.2684375 2.4021875 -2.5625 2.8125 C-5.03072109 3.6651582 -7.3174608 4.56100368 -9.6875 5.625 C-13 7 -13 7 -16 7 C-10.91312771 2.39759173 -7.10382396 0 0 0 Z " fill="#5C5C5C" transform="translate(312,230)"/>
<path d="M0 0 C1.32 0.33 2.64 0.66 4 1 C5.17076699 4.98060777 6.25749403 8.91621717 7 13 C6.34 12.67 5.68 12.34 5 12 C5 11.01 5 10.02 5 9 C4.01 9 3.02 9 2 9 C1.67 10.32 1.34 11.64 1 13 C0.67 8.71 0.34 4.42 0 0 Z " fill="#DBDBDB" transform="translate(327,237)"/>
<path d="M0 0 C2.64 0 5.28 0 8 0 C8 2.31 8 4.62 8 7 C1.125 3.375 1.125 3.375 0 0 Z " fill="#C4C4C5" transform="translate(269,219)"/>
<path d="M0 0 C0.66 0.33 1.32 0.66 2 1 C2 4.3 2 7.6 2 11 C-0.3125 11.625 -0.3125 11.625 -3 12 C-3.99 11.34 -4.98 10.68 -6 10 C-4.35 9.34 -2.7 8.68 -1 8 C-0.67 5.36 -0.34 2.72 0 0 Z " fill="#626262" transform="translate(238,250)"/>
<path d="M0 0 C0.65355469 0.59748047 0.65355469 0.59748047 1.3203125 1.20703125 C5.00994686 4.48936831 8.43077198 6.99399746 13 9 C9.67838483 10.14203848 7.96886264 9.94757969 4.8125 8.4375 C2.70703125 7.32421875 2.70703125 7.32421875 1 6 C0 2.75 0 2.75 0 0 Z " fill="#BABABA" transform="translate(253,248)"/>
<path d="M0 0 C0.66 0.33 1.32 0.66 2 1 C1.67 1.99 1.34 2.98 1 4 C-0.98 4.33 -2.96 4.66 -5 5 C-4.67 6.98 -4.34 8.96 -4 11 C-5.70884005 9.37660195 -7.37446717 7.70680947 -9 6 C-9 5.34 -9 4.68 -9 4 C-8.43410156 3.79503906 -7.86820313 3.59007812 -7.28515625 3.37890625 C-6.55167969 3.10949219 -5.81820312 2.84007812 -5.0625 2.5625 C-4.33160156 2.29566406 -3.60070312 2.02882812 -2.84765625 1.75390625 C-1.01694322 1.14613052 -1.01694322 1.14613052 0 0 Z " fill="#565656" transform="translate(158,237)"/>
<path d="M0 0 C-0.33 0.99 -0.66 1.98 -1 3 C-2.8253125 3.1546875 -2.8253125 3.1546875 -4.6875 3.3125 C-8.41069448 3.76219312 -10.91662995 4.78382778 -14 7 C-14 5 -14 5 -11.5 2.375 C-7.71782145 -0.71046145 -4.73623617 -0.40829622 0 0 Z " fill="#696969" transform="translate(360,237)"/>
<path d="M0 0 C0.125 2.875 0.125 2.875 0 6 C-0.66 6.66 -1.32 7.32 -2 8 C-1.67 6.02 -1.34 4.04 -1 2 C-2.11375 2.680625 -3.2275 3.36125 -4.375 4.0625 C-6.2734375 5.22265625 -6.2734375 5.22265625 -8 6 C-8.66 5.67 -9.32 5.34 -10 5 C-6.75728676 1.53365137 -4.90610505 0 0 0 Z " fill="#D8D8D8" transform="translate(312,234)"/>
<path d="M0 0 C5.61 0.33 11.22 0.66 17 1 C17 1.33 17 1.66 17 2 C9.08 2.495 9.08 2.495 1 3 C0.67 2.01 0.34 1.02 0 0 Z " fill="#0B0B0B" transform="translate(239,212)"/>
<path d="M0 0 C0.99 0 1.98 0 3 0 C3 0.66 3 1.32 3 2 C3.99 2.33 4.98 2.66 6 3 C6.1953125 9.0546875 6.1953125 9.0546875 6 11 C5.34 11.66 4.68 12.32 4 13 C3.96261719 12.37351562 3.92523438 11.74703125 3.88671875 11.1015625 C3.82097656 10.28429687 3.75523437 9.46703125 3.6875 8.625 C3.62949219 7.81289062 3.57148438 7.00078125 3.51171875 6.1640625 C3.17009472 3.62078662 3.17009472 3.62078662 0 2 C0 1.34 0 0.68 0 0 Z " fill="#D7D7D7" transform="translate(238,248)"/>
<path d="M0 0 C-0.804375 0.3403125 -0.804375 0.3403125 -1.625 0.6875 C-4.88056206 2.4866264 -7.36213908 4.36213908 -10 7 C-10.96838142 10.67924984 -10.96838142 10.67924984 -11 14 C-11.33 14 -11.66 14 -12 14 C-12.48867825 6.79199579 -12.48867825 6.79199579 -10.1875 3.0625 C-6.91607132 -0.0219899 -4.32190112 -0.11680814 0 0 Z " fill="#D1D1D1" transform="translate(359,241)"/>
<path d="M0 0 C2.64 0.66 5.28 1.32 8 2 C8 3.65 8 5.3 8 7 C8.66 7.33 9.32 7.66 10 8 C7.8125 7.9375 7.8125 7.9375 5 7 C3.03934461 4.79558745 1.59334127 2.503822 0 0 Z " fill="#B5B5B5" transform="translate(410,203)"/>
<path d="M0 0 C3.59253891 3.45436433 6.79239749 7.19364503 10 11 C9.01 11.33 8.02 11.66 7 12 C2 6.25 2 6.25 2 4 C1.34 4 0.68 4 0 4 C0 2.68 0 1.36 0 0 Z " fill="#CACACA" transform="translate(76,246)"/>
<path d="M0 0 C0.33 0 0.66 0 1 0 C1 3.63 1 7.26 1 11 C-1.31 10.67 -3.62 10.34 -6 10 C-4.71034824 8.62437146 -3.37310707 7.29233607 -2 6 C-1.34 6 -0.68 6 0 6 C0 4.02 0 2.04 0 0 Z " fill="#777777" transform="translate(239,216)"/>
<path d="M0 0 C0.33 1.32 0.66 2.64 1 4 C-1.31 4.33 -3.62 4.66 -6 5 C-6.66 6.65 -7.32 8.3 -8 10 C-8.33 10 -8.66 10 -9 10 C-8.67 7.36 -8.34 4.72 -8 2 C-5.36 2 -2.72 2 0 2 C0 1.34 0 0.68 0 0 Z " fill="#898989" transform="translate(426,214)"/>
<path d="M0 0 C4.51478398 0.53115106 7.34666857 2.36620292 11 5 C9.02 5.99 9.02 5.99 7 7 C5.83040013 6.02433888 4.66438823 5.044375 3.5 4.0625 C2.8503125 3.51722656 2.200625 2.97195312 1.53125 2.41015625 C1.0259375 1.94480469 0.520625 1.47945312 0 1 C0 0.67 0 0.34 0 0 Z " fill="#252525" transform="translate(146,199)"/>
<path d="M0 0 C0.99 0 1.98 0 3 0 C3 0.66 3 1.32 3 2 C3.66 2 4.32 2 5 2 C6.06775224 3.96466413 7.06553465 5.96855359 8 8 C7.67 8.66 7.34 9.32 7 10 C6.731875 9.360625 6.46375 8.72125 6.1875 8.0625 C5.11332248 5.66868314 5.11332248 5.66868314 2 5 C0.8125 2.4375 0.8125 2.4375 0 0 Z " fill="#E8E8E8" transform="translate(368,278)"/>
<path d="M0 0 C4.62 0 9.24 0 14 0 C13.67 0.66 13.34 1.32 13 2 C10.36 2 7.72 2 5 2 C5 2.99 5 3.98 5 5 C2.525 4.01 2.525 4.01 0 3 C0 2.01 0 1.02 0 0 Z " fill="#A8A8AA" transform="translate(368,218)"/>
<path d="M0 0 C2.5 1.8125 2.5 1.8125 5 4 C5 4.99 5 5.98 5 7 C3.68 7.33 2.36 7.66 1 8 C-1.125 3.375 -1.125 3.375 0 0 Z " fill="#CACACC" transform="translate(177,242)"/>
<path d="M0 0 C0.33 0.99 0.66 1.98 1 3 C0.34 3 -0.32 3 -1 3 C-1 3.66 -1 4.32 -1 5 C-2.98 5 -4.96 5 -7 5 C-7.33 3.68 -7.66 2.36 -8 1 C-6.865625 1.020625 -5.73125 1.04125 -4.5625 1.0625 C-1.18424326 1.41577477 -1.18424326 1.41577477 0 0 Z " fill="#D8D8D8" transform="translate(241,261)"/>
<path d="M0 0 C1.299375 0.2475 1.299375 0.2475 2.625 0.5 C5.81225199 0.97218548 8.78485027 1.07655118 12 1 C10.68 1.33 9.36 1.66 8 2 C8 2.66 8 3.32 8 4 C8.99 4.33 9.98 4.66 11 5 C10.01 5.495 10.01 5.495 9 6 C6.8359375 5.00390625 6.8359375 5.00390625 4.375 3.5625 C3.55773437 3.08941406 2.74046875 2.61632812 1.8984375 2.12890625 C1.27195313 1.75636719 0.64546875 1.38382813 0 1 C0 0.67 0 0.34 0 0 Z " fill="#2D2D2D" transform="translate(158,253)"/>
<path d="M0 0 C1.32 0.33 2.64 0.66 4 1 C3.88601335 2.62580966 3.75844341 4.25067157 3.625 5.875 C3.52058594 7.23238281 3.52058594 7.23238281 3.4140625 8.6171875 C3 11 3 11 1 13 C1.020625 11.783125 1.04125 10.56625 1.0625 9.3125 C1.06824116 6.08022678 0.78766315 3.15065259 0 0 Z " fill="#F2F2F2" transform="translate(108,240)"/>
<path d="M0 0 C0.33 0.66 0.66 1.32 1 2 C1.66 2 2.32 2 3 2 C2.67 3.98 2.34 5.96 2 8 C1.67 8 1.34 8 1 8 C0.67 9.98 0.34 11.96 0 14 C-0.33 14 -0.66 14 -1 14 C-1.02694851 12.04174127 -1.04637218 10.08337774 -1.0625 8.125 C-1.07410156 7.03445312 -1.08570312 5.94390625 -1.09765625 4.8203125 C-1 2 -1 2 0 0 Z " fill="#212121" transform="translate(76,232)"/>
<path d="M0 0 C0.33 0.66 0.66 1.32 1 2 C1.66 2 2.32 2 3 2 C5 5 5 5 5 9 C5.66 9.33 6.32 9.66 7 10 C6.01 10 5.02 10 4 10 C3.773125 9.236875 3.54625 8.47375 3.3125 7.6875 C1.73268318 4.45263699 0.16717283 3.58358642 -3 2 C-2.01 1.34 -1.02 0.68 0 0 Z " fill="#B8B7B7" transform="translate(285,201)"/>
<path d="M0 0 C0.33 0 0.66 0 1 0 C1.02696365 1.79158489 1.04637917 3.58328473 1.0625 5.375 C1.07410156 6.37273437 1.08570312 7.37046875 1.09765625 8.3984375 C1 11 1 11 0 13 C-2.0625 13.625 -2.0625 13.625 -4 14 C-2.125 9.125 -2.125 9.125 -1 8 C-0.76924918 6.65252916 -0.58846937 5.29622435 -0.4375 3.9375 C-0.2209375 1.9884375 -0.2209375 1.9884375 0 0 Z " fill="#545454" transform="translate(104,242)"/>
<path d="M0 0 C3.63 0.33 7.26 0.66 11 1 C11 1.66 11 2.32 11 3 C9.54176788 3.0270043 8.08339325 3.04639787 6.625 3.0625 C5.81289063 3.07410156 5.00078125 3.08570313 4.1640625 3.09765625 C2 3 2 3 0 2 C0 1.34 0 0.68 0 0 Z " fill="#A1A1A1" transform="translate(266,258)"/>
<path d="M0 0 C3.3 0.33 6.6 0.66 10 1 C10 1.33 10 1.66 10 2 C8.88625 2.103125 7.7725 2.20625 6.625 2.3125 C5.42875 2.539375 4.2325 2.76625 3 3 C2.34 3.99 1.68 4.98 1 6 C0.67 4.02 0.34 2.04 0 0 Z " fill="#A7A7A7" transform="translate(103,236)"/>
<path d="M0 0 C-0.33 1.32 -0.66 2.64 -1 4 C-1.66 4 -2.32 4 -3 4 C-3 3.34 -3 2.68 -3 2 C-4.65 3.32 -6.3 4.64 -8 6 C-8.66 5.67 -9.32 5.34 -10 5 C-4.5 0 -4.5 0 0 0 Z " fill="#DADADA" transform="translate(277,232)"/>
<path d="M0 0 C1.32 0.33 2.64 0.66 4 1 C3.67 3.31 3.34 5.62 3 8 C2.01 8.33 1.02 8.66 0 9 C0 6.03 0 3.06 0 0 Z " fill="#808080" transform="translate(186,234)"/>
<path d="M0 0 C0.99 0 1.98 0 3 0 C2.979375 0.78375 2.95875 1.5675 2.9375 2.375 C2.81315937 4.98114961 2.81315937 4.98114961 4 7 C2.68 7.33 1.36 7.66 0 8 C0 5.36 0 2.72 0 0 Z " fill="#636162" transform="translate(289,216)"/>
<path d="M0 0 C1.98 0 3.96 0 6 0 C9 5.625 9 5.625 9 9 C7.49704815 7.69088122 5.99770689 6.37761608 4.5 5.0625 C3.6646875 4.33160156 2.829375 3.60070312 1.96875 2.84765625 C1.3190625 2.23792969 0.669375 1.62820312 0 1 C0 0.67 0 0.34 0 0 Z " fill="#A5A5A5" transform="translate(154,202)"/>
<path d="M0 0 C0.33 1.32 0.66 2.64 1 4 C0.195625 4.556875 -0.60875 5.11375 -1.4375 5.6875 C-4.24228216 8.21864487 -4.69381595 9.32579134 -5 13 C-5.33 13 -5.66 13 -6 13 C-6.46557346 9.81858133 -6.50963377 7.74656877 -4.6640625 5.04296875 C-3.15741976 3.3064392 -1.62063536 1.630282 0 0 Z " fill="#444444" transform="translate(295,238)"/>
<path d="M0 0 C-0.33 1.32 -0.66 2.64 -1 4 C-1.66 4 -2.32 4 -3 4 C-3 4.66 -3 5.32 -3 6 C-4.32 5.67 -5.64 5.34 -7 5 C-6.67 4.34 -6.34 3.68 -6 3 C-5.34 3 -4.68 3 -4 3 C-4 2.34 -4 1.68 -4 1 C-2 0 -2 0 0 0 Z " fill="#5E5E5F" transform="translate(382,237)"/>
<path d="M0 0 C2.97 0.99 5.94 1.98 9 3 C9 2.01 9 1.02 9 0 C9.66 0 10.32 0 11 0 C10.67 1.32 10.34 2.64 10 4 C7.03 4 4.06 4 1 4 C0.67 2.68 0.34 1.36 0 0 Z " fill="#BFBFBF" transform="translate(231,224)"/>
<path d="M0 0 C2 0.6875 2 0.6875 4 2.6875 C2.02 3.6775 2.02 3.6775 0 4.6875 C-1.32 3.3675 -2.64 2.0475 -4 0.6875 C-2 -0.3125 -2 -0.3125 0 0 Z " fill="#D1D1D1" transform="translate(123,201.3125)"/>
<path d="M0 0 C6.875 3.625 6.875 3.625 8 7 C6.68 7 5.36 7 4 7 C4 6.01 4 5.02 4 4 C2.35 3.67 0.7 3.34 -1 3 C-0.67 2.01 -0.34 1.02 0 0 Z " fill="#C2C2C2" transform="translate(201,269)"/>
<path d="M0 0 C2 1.8125 2 1.8125 4 4 C4 4.99 4 5.98 4 7 C1.36 7 -1.28 7 -4 7 C-4 6.67 -4 6.34 -4 6 C-2.35 5.67 -0.7 5.34 1 5 C0.67 3.35 0.34 1.7 0 0 Z " fill="#D1D1D1" transform="translate(151,204)"/>
<path d="M0 0 C3.42054006 1.14018002 4.2426201 1.92458518 6 5 C5.6875 7.25 5.6875 7.25 5 9 C5 8.34 5 7.68 5 7 C4.34 7 3.68 7 3 7 C0 2.61538462 0 2.61538462 0 0 Z " fill="#B4B4B4" transform="translate(370,283)"/>
<path d="M0 0 C4.875 4.625 4.875 4.625 6 8 C4.68 7.67 3.36 7.34 2 7 C1.34 4.69 0.68 2.38 0 0 Z " fill="#C8C8C8" transform="translate(382,266)"/>
<path d="M0 0 C2.66666667 0.66666667 5.33333333 1.33333333 8 2 C8 2.66 8 3.32 8 4 C8.66 4.33 9.32 4.66 10 5 C7.69 4.67 5.38 4.34 3 4 C3 3.34 3 2.68 3 2 C2.01 1.67 1.02 1.34 0 1 C0 0.67 0 0.34 0 0 Z " fill="#DEDEDE" transform="translate(258,256)"/>
<path d="M0 0 C1.33470263 2.66940525 0.57333449 4.13332753 0 7 C0.33 7.66 0.66 8.32 1 9 C0.01 9.33 -0.98 9.66 -2 10 C-3.06351675 6.61608307 -3.21442982 5.4195366 -1.5625 2.1875 C-1.046875 1.465625 -0.53125 0.74375 0 0 Z " fill="#ADADAD" transform="translate(265,238)"/>
<path d="M0 0 C0.66 0 1.32 0 2 0 C2.38218767 1.65614657 2.71395102 3.32457024 3 5 C2 6 2 6 -0.06640625 6.09765625 C-0.89011719 6.08605469 -1.71382812 6.07445312 -2.5625 6.0625 C-3.38878906 6.05347656 -4.21507812 6.04445312 -5.06640625 6.03515625 C-5.70449219 6.02355469 -6.34257812 6.01195312 -7 6 C-7 5.67 -7 5.34 -7 5 C-4.69 4.34 -2.38 3.68 0 3 C0 2.01 0 1.02 0 0 Z " fill="#DBDBDB" transform="translate(223,215)"/>
<path d="M0 0 C0.495 0.639375 0.99 1.27875 1.5 1.9375 C4.98806387 4.81515269 7.53461041 4.70230736 12 5 C12 5.33 12 5.66 12 6 C8.7 6 5.4 6 2 6 C1.34 4.02 0.68 2.04 0 0 Z " fill="#434343" transform="translate(124,206)"/>
<path d="M0 0 C2.475 0.495 2.475 0.495 5 1 C5.33 2.98 5.66 4.96 6 7 C2.58841744 5.86280581 1.88145399 4.95657056 0 2 C0 1.34 0 0.68 0 0 Z " fill="#A5A5A5" transform="translate(364,276)"/>
<path d="M0 0 C1.98 0 3.96 0 6 0 C6 0.99 6 1.98 6 3 C4.02 3 2.04 3 0 3 C0 2.01 0 1.02 0 0 Z " fill="#F3F3F4" transform="translate(375,221)"/>
<path d="M0 0 C2.64 0 5.28 0 8 0 C7.34 1.32 6.68 2.64 6 4 C5.67 3.34 5.34 2.68 5 2 C3.35 2 1.7 2 0 2 C0 1.34 0 0.68 0 0 Z " fill="#B3B3B3" transform="translate(172,218)"/>
<path d="M0 0 C4.8 2.46153846 4.8 2.46153846 5.8125 5.1875 C5.874375 5.785625 5.93625 6.38375 6 7 C4.35 6.67 2.7 6.34 1 6 C0.67 4.02 0.34 2.04 0 0 Z " fill="#D4D4D4" transform="translate(69,213)"/>
<path d="M0 0 C2.04119788 1.61594832 4.04072937 3.2856382 6 5 C6 5.66 6 6.32 6 7 C4.68 7 3.36 7 2 7 C1.34 4.69 0.68 2.38 0 0 Z " fill="#C0C0C0" transform="translate(404,267)"/>
<path d="M0 0 C0 0.66 0 1.32 0 2 C-0.66 2 -1.32 2 -2 2 C-2 2.66 -2 3.32 -2 4 C-4.64 4 -7.28 4 -10 4 C-8.66666667 3.33333333 -7.33333333 2.66666667 -6 2 C-5.29875 1.62875 -4.5975 1.2575 -3.875 0.875 C-2 0 -2 0 0 0 Z " fill="#494949" transform="translate(318,256)"/>
<path d="M0 0 C0.66 0.33 1.32 0.66 2 1 C1.01 2.98 0.02 4.96 -1 7 C-0.34 7.33 0.32 7.66 1 8 C0.34 8 -0.32 8 -1 8 C-1 8.66 -1 9.32 -1 10 C-1.66 10 -2.32 10 -3 10 C-2.49287967 6.28111761 -1.88391785 3.26545761 0 0 Z " fill="#3F3F3F" transform="translate(89,238)"/>
<path d="M0 0 C2.475 0.495 2.475 0.495 5 1 C4.01 1.66 3.02 2.32 2 3 C1.42251197 4.96361864 1.42251197 4.96361864 1.3125 7.125 C1.209375 8.40375 1.10625 9.6825 1 11 C0.67 11 0.34 11 0 11 C0 7.37 0 3.74 0 0 Z " fill="#454545" transform="translate(277,200)"/>
<path d="M0 0 C2.15377564 2.62198774 3.40072174 4.64404172 4 8 C3.01 8.33 2.02 8.66 1 9 C0 8 0 8 -0.09765625 6.15234375 C-0.06510417 4.1015625 -0.03255208 2.05078125 0 0 Z " fill="#343434" transform="translate(331,236)"/>
<path d="M0 0 C1.98 0.495 1.98 0.495 4 1 C3.67 2.32 3.34 3.64 3 5 C1.68 5 0.36 5 -1 5 C-0.67 3.35 -0.34 1.7 0 0 Z " fill="#D6D6D6" transform="translate(170,231)"/>
<path d="M0 0 C3.63 0 7.26 0 11 0 C11 0.33 11 0.66 11 1 C10.04287109 1.07347656 10.04287109 1.07347656 9.06640625 1.1484375 C8.24011719 1.22320312 7.41382812 1.29796875 6.5625 1.375 C5.73878906 1.44460937 4.91507812 1.51421875 4.06640625 1.5859375 C3.38449219 1.72257813 2.70257813 1.85921875 2 2 C1.67 2.66 1.34 3.32 1 4 C0.34 3.67 -0.32 3.34 -1 3 C-0.67 2.01 -0.34 1.02 0 0 Z " fill="#1A1A1A" transform="translate(98,226)"/>
<path d="M0 0 C0.8971875 0.309375 0.8971875 0.309375 1.8125 0.625 C-1.1340385 2.42566242 -4.07551935 4.12663895 -7.1875 5.625 C-5.69046729 2.17030914 -4.27938051 -0.73360809 0 0 Z " fill="#252525" transform="translate(181.1875,220.375)"/>
<path d="M0 0 C2.125 0.9375 2.125 0.9375 4 2 C4 2.66 4 3.32 4 4 C2.35 4 0.7 4 -1 4 C-1.33 3.01 -1.66 2.02 -2 1 C-1.34 0.67 -0.68 0.34 0 0 Z " fill="#2E2E2E" transform="translate(218,212)"/>
<path d="M0 0 C1.98 0.99 1.98 0.99 4 2 C3.01 2.495 3.01 2.495 2 3 C2 5.64 2 8.28 2 11 C1.34 11 0.68 11 0 11 C0 7.37 0 3.74 0 0 Z " fill="#1B1B1B" transform="translate(382,200)"/>
<path d="M0 0 C2 1 2 1 3.125 4.0625 C3.41375 5.031875 3.7025 6.00125 4 7 C1.69 5.35 -0.62 3.7 -3 2 C-2.01 1.34 -1.02 0.68 0 0 Z " fill="#BDBDBD" transform="translate(207,201)"/>
</svg>
